%TF.GenerationSoftware,KiCad,Pcbnew,(5.1.7)-1*%
%TF.CreationDate,2021-11-27T18:52:13+01:00*%
%TF.ProjectId,SFP-32 Clampshell,5346502d-3332-4204-936c-616d70736865,rev?*%
%TF.SameCoordinates,Original*%
%TF.FileFunction,Soldermask,Top*%
%TF.FilePolarity,Negative*%
%FSLAX46Y46*%
G04 Gerber Fmt 4.6, Leading zero omitted, Abs format (unit mm)*
G04 Created by KiCad (PCBNEW (5.1.7)-1) date 2021-11-27 18:52:13*
%MOMM*%
%LPD*%
G01*
G04 APERTURE LIST*
%ADD10C,0.800000*%
%ADD11C,6.400000*%
%ADD12R,1.400000X1.200000*%
%ADD13O,0.850000X0.850000*%
%ADD14R,0.850000X0.850000*%
%ADD15R,0.300000X0.700000*%
%ADD16C,0.650000*%
%ADD17O,0.950000X0.650000*%
%ADD18O,0.800000X1.400000*%
%ADD19R,1.300000X1.400000*%
%ADD20C,3.400000*%
%ADD21C,1.400000*%
G04 APERTURE END LIST*
D10*
%TO.C,M3*%
X134412056Y-81487944D03*
X132715000Y-80785000D03*
X131017944Y-81487944D03*
X130315000Y-83185000D03*
X131017944Y-84882056D03*
X132715000Y-85585000D03*
X134412056Y-84882056D03*
X135115000Y-83185000D03*
D11*
X132715000Y-83185000D03*
%TD*%
%TO.C,M3*%
X167640000Y-83185000D03*
D10*
X170040000Y-83185000D03*
X169337056Y-84882056D03*
X167640000Y-85585000D03*
X165942944Y-84882056D03*
X165240000Y-83185000D03*
X165942944Y-81487944D03*
X167640000Y-80785000D03*
X169337056Y-81487944D03*
%TD*%
D11*
%TO.C,M3*%
X132715000Y-34290000D03*
D10*
X135115000Y-34290000D03*
X134412056Y-35987056D03*
X132715000Y-36690000D03*
X131017944Y-35987056D03*
X130315000Y-34290000D03*
X131017944Y-32592944D03*
X132715000Y-31890000D03*
X134412056Y-32592944D03*
%TD*%
%TO.C,M3*%
X169337056Y-32592944D03*
X167640000Y-31890000D03*
X165942944Y-32592944D03*
X165240000Y-34290000D03*
X165942944Y-35987056D03*
X167640000Y-36690000D03*
X169337056Y-35987056D03*
X170040000Y-34290000D03*
D11*
X167640000Y-34290000D03*
%TD*%
D12*
%TO.C,Y1*%
X154475000Y-82335000D03*
X156675000Y-82335000D03*
X156675000Y-84035000D03*
X154475000Y-84035000D03*
%TD*%
%TO.C,R1*%
G36*
G01*
X159200001Y-91675000D02*
X158299999Y-91675000D01*
G75*
G02*
X158050000Y-91425001I0J249999D01*
G01*
X158050000Y-90899999D01*
G75*
G02*
X158299999Y-90650000I249999J0D01*
G01*
X159200001Y-90650000D01*
G75*
G02*
X159450000Y-90899999I0J-249999D01*
G01*
X159450000Y-91425001D01*
G75*
G02*
X159200001Y-91675000I-249999J0D01*
G01*
G37*
G36*
G01*
X159200001Y-93500000D02*
X158299999Y-93500000D01*
G75*
G02*
X158050000Y-93250001I0J249999D01*
G01*
X158050000Y-92724999D01*
G75*
G02*
X158299999Y-92475000I249999J0D01*
G01*
X159200001Y-92475000D01*
G75*
G02*
X159450000Y-92724999I0J-249999D01*
G01*
X159450000Y-93250001D01*
G75*
G02*
X159200001Y-93500000I-249999J0D01*
G01*
G37*
%TD*%
D13*
%TO.C,J3*%
X150336000Y-93615000D03*
X150336000Y-94615000D03*
X149336000Y-93615000D03*
X149336000Y-94615000D03*
X148336000Y-93615000D03*
D14*
X148336000Y-94615000D03*
%TD*%
D15*
%TO.C,J2*%
X133525000Y-91295000D03*
X134025000Y-91295000D03*
X134525000Y-91295000D03*
X135025000Y-91295000D03*
X135525000Y-91295000D03*
X136025000Y-91295000D03*
X136525000Y-91295000D03*
X137025000Y-91295000D03*
X137525000Y-91295000D03*
X138025000Y-91295000D03*
X138525000Y-91295000D03*
D16*
X132925000Y-90255000D03*
D17*
X140125000Y-90255000D03*
D18*
X132035000Y-97455000D03*
X141015000Y-97455000D03*
X140655000Y-91505000D03*
D15*
X139025000Y-91295000D03*
X138775000Y-89595000D03*
X137275000Y-89595000D03*
X137775000Y-89595000D03*
X138275000Y-89595000D03*
X139275000Y-89595000D03*
X136775000Y-89595000D03*
X136275000Y-89595000D03*
X135775000Y-89595000D03*
X135275000Y-89595000D03*
X134775000Y-89595000D03*
X134275000Y-89595000D03*
X133775000Y-89595000D03*
D18*
X132395000Y-91505000D03*
%TD*%
%TO.C,F1*%
G36*
G01*
X141255000Y-85468750D02*
X141255000Y-85981250D01*
G75*
G02*
X141036250Y-86200000I-218750J0D01*
G01*
X140598750Y-86200000D01*
G75*
G02*
X140380000Y-85981250I0J218750D01*
G01*
X140380000Y-85468750D01*
G75*
G02*
X140598750Y-85250000I218750J0D01*
G01*
X141036250Y-85250000D01*
G75*
G02*
X141255000Y-85468750I0J-218750D01*
G01*
G37*
G36*
G01*
X142830000Y-85468750D02*
X142830000Y-85981250D01*
G75*
G02*
X142611250Y-86200000I-218750J0D01*
G01*
X142173750Y-86200000D01*
G75*
G02*
X141955000Y-85981250I0J218750D01*
G01*
X141955000Y-85468750D01*
G75*
G02*
X142173750Y-85250000I218750J0D01*
G01*
X142611250Y-85250000D01*
G75*
G02*
X142830000Y-85468750I0J-218750D01*
G01*
G37*
%TD*%
%TO.C,D2*%
G36*
G01*
X159206250Y-95435000D02*
X158293750Y-95435000D01*
G75*
G02*
X158050000Y-95191250I0J243750D01*
G01*
X158050000Y-94703750D01*
G75*
G02*
X158293750Y-94460000I243750J0D01*
G01*
X159206250Y-94460000D01*
G75*
G02*
X159450000Y-94703750I0J-243750D01*
G01*
X159450000Y-95191250D01*
G75*
G02*
X159206250Y-95435000I-243750J0D01*
G01*
G37*
G36*
G01*
X159206250Y-97310000D02*
X158293750Y-97310000D01*
G75*
G02*
X158050000Y-97066250I0J243750D01*
G01*
X158050000Y-96578750D01*
G75*
G02*
X158293750Y-96335000I243750J0D01*
G01*
X159206250Y-96335000D01*
G75*
G02*
X159450000Y-96578750I0J-243750D01*
G01*
X159450000Y-97066250D01*
G75*
G02*
X159206250Y-97310000I-243750J0D01*
G01*
G37*
%TD*%
D19*
%TO.C,D1*%
X144600000Y-85725000D03*
X147500000Y-85725000D03*
%TD*%
%TO.C,C6*%
G36*
G01*
X156645000Y-85555000D02*
X156645000Y-85895000D01*
G75*
G02*
X156505000Y-86035000I-140000J0D01*
G01*
X156225000Y-86035000D01*
G75*
G02*
X156085000Y-85895000I0J140000D01*
G01*
X156085000Y-85555000D01*
G75*
G02*
X156225000Y-85415000I140000J0D01*
G01*
X156505000Y-85415000D01*
G75*
G02*
X156645000Y-85555000I0J-140000D01*
G01*
G37*
G36*
G01*
X157605000Y-85555000D02*
X157605000Y-85895000D01*
G75*
G02*
X157465000Y-86035000I-140000J0D01*
G01*
X157185000Y-86035000D01*
G75*
G02*
X157045000Y-85895000I0J140000D01*
G01*
X157045000Y-85555000D01*
G75*
G02*
X157185000Y-85415000I140000J0D01*
G01*
X157465000Y-85415000D01*
G75*
G02*
X157605000Y-85555000I0J-140000D01*
G01*
G37*
%TD*%
%TO.C,C5*%
G36*
G01*
X154505000Y-85895000D02*
X154505000Y-85555000D01*
G75*
G02*
X154645000Y-85415000I140000J0D01*
G01*
X154925000Y-85415000D01*
G75*
G02*
X155065000Y-85555000I0J-140000D01*
G01*
X155065000Y-85895000D01*
G75*
G02*
X154925000Y-86035000I-140000J0D01*
G01*
X154645000Y-86035000D01*
G75*
G02*
X154505000Y-85895000I0J140000D01*
G01*
G37*
G36*
G01*
X153545000Y-85895000D02*
X153545000Y-85555000D01*
G75*
G02*
X153685000Y-85415000I140000J0D01*
G01*
X153965000Y-85415000D01*
G75*
G02*
X154105000Y-85555000I0J-140000D01*
G01*
X154105000Y-85895000D01*
G75*
G02*
X153965000Y-86035000I-140000J0D01*
G01*
X153685000Y-86035000D01*
G75*
G02*
X153545000Y-85895000I0J140000D01*
G01*
G37*
%TD*%
%TO.C,C4*%
G36*
G01*
X151965000Y-85895000D02*
X151965000Y-85555000D01*
G75*
G02*
X152105000Y-85415000I140000J0D01*
G01*
X152385000Y-85415000D01*
G75*
G02*
X152525000Y-85555000I0J-140000D01*
G01*
X152525000Y-85895000D01*
G75*
G02*
X152385000Y-86035000I-140000J0D01*
G01*
X152105000Y-86035000D01*
G75*
G02*
X151965000Y-85895000I0J140000D01*
G01*
G37*
G36*
G01*
X151005000Y-85895000D02*
X151005000Y-85555000D01*
G75*
G02*
X151145000Y-85415000I140000J0D01*
G01*
X151425000Y-85415000D01*
G75*
G02*
X151565000Y-85555000I0J-140000D01*
G01*
X151565000Y-85895000D01*
G75*
G02*
X151425000Y-86035000I-140000J0D01*
G01*
X151145000Y-86035000D01*
G75*
G02*
X151005000Y-85895000I0J140000D01*
G01*
G37*
%TD*%
%TO.C,C3*%
G36*
G01*
X167495000Y-93895000D02*
X167495000Y-92795000D01*
G75*
G02*
X167745000Y-92545000I250000J0D01*
G01*
X171170000Y-92545000D01*
G75*
G02*
X171420000Y-92795000I0J-250000D01*
G01*
X171420000Y-93895000D01*
G75*
G02*
X171170000Y-94145000I-250000J0D01*
G01*
X167745000Y-94145000D01*
G75*
G02*
X167495000Y-93895000I0J250000D01*
G01*
G37*
G36*
G01*
X161320000Y-93895000D02*
X161320000Y-92795000D01*
G75*
G02*
X161570000Y-92545000I250000J0D01*
G01*
X164995000Y-92545000D01*
G75*
G02*
X165245000Y-92795000I0J-250000D01*
G01*
X165245000Y-93895000D01*
G75*
G02*
X164995000Y-94145000I-250000J0D01*
G01*
X161570000Y-94145000D01*
G75*
G02*
X161320000Y-93895000I0J250000D01*
G01*
G37*
%TD*%
%TO.C,C2*%
G36*
G01*
X161105000Y-83025000D02*
X161105000Y-82075000D01*
G75*
G02*
X161355000Y-81825000I250000J0D01*
G01*
X161855000Y-81825000D01*
G75*
G02*
X162105000Y-82075000I0J-250000D01*
G01*
X162105000Y-83025000D01*
G75*
G02*
X161855000Y-83275000I-250000J0D01*
G01*
X161355000Y-83275000D01*
G75*
G02*
X161105000Y-83025000I0J250000D01*
G01*
G37*
G36*
G01*
X159205000Y-83025000D02*
X159205000Y-82075000D01*
G75*
G02*
X159455000Y-81825000I250000J0D01*
G01*
X159955000Y-81825000D01*
G75*
G02*
X160205000Y-82075000I0J-250000D01*
G01*
X160205000Y-83025000D01*
G75*
G02*
X159955000Y-83275000I-250000J0D01*
G01*
X159455000Y-83275000D01*
G75*
G02*
X159205000Y-83025000I0J250000D01*
G01*
G37*
%TD*%
%TO.C,C1*%
G36*
G01*
X161105000Y-85565000D02*
X161105000Y-84615000D01*
G75*
G02*
X161355000Y-84365000I250000J0D01*
G01*
X161855000Y-84365000D01*
G75*
G02*
X162105000Y-84615000I0J-250000D01*
G01*
X162105000Y-85565000D01*
G75*
G02*
X161855000Y-85815000I-250000J0D01*
G01*
X161355000Y-85815000D01*
G75*
G02*
X161105000Y-85565000I0J250000D01*
G01*
G37*
G36*
G01*
X159205000Y-85565000D02*
X159205000Y-84615000D01*
G75*
G02*
X159455000Y-84365000I250000J0D01*
G01*
X159955000Y-84365000D01*
G75*
G02*
X160205000Y-84615000I0J-250000D01*
G01*
X160205000Y-85565000D01*
G75*
G02*
X159955000Y-85815000I-250000J0D01*
G01*
X159455000Y-85815000D01*
G75*
G02*
X159205000Y-85565000I0J250000D01*
G01*
G37*
%TD*%
D20*
%TO.C,U1*%
X139224999Y-47420000D03*
X139224999Y-69420000D03*
X161224999Y-69420000D03*
X161224999Y-47420000D03*
D21*
X143684999Y-60170000D03*
X141144999Y-59670000D03*
X146224999Y-59170000D03*
X143684999Y-58670000D03*
X141144999Y-58170000D03*
X146224999Y-57670000D03*
X143684999Y-57170000D03*
X141144999Y-56670000D03*
X148474999Y-51880000D03*
X148974999Y-49340000D03*
X149474999Y-54420000D03*
X149974999Y-51880000D03*
X150474999Y-49340000D03*
X150974999Y-54420000D03*
X151474999Y-51880000D03*
X151974999Y-49340000D03*
X156764999Y-56670000D03*
X159304999Y-57170000D03*
X154224999Y-57670000D03*
X156764999Y-58170000D03*
X159304999Y-58670000D03*
X154224999Y-59170000D03*
X156764999Y-59670000D03*
X159304999Y-60170000D03*
X151974999Y-64960000D03*
X151474999Y-67500000D03*
X150974999Y-62420000D03*
X150474999Y-64960000D03*
X149974999Y-67500000D03*
X149474999Y-62420000D03*
X148974999Y-64960000D03*
X148474999Y-67500000D03*
%TD*%
D13*
%TO.C,J1*%
X157748000Y-32655000D03*
X157748000Y-33655000D03*
X156748000Y-32655000D03*
X156748000Y-33655000D03*
X155748000Y-32655000D03*
X155748000Y-33655000D03*
X154748000Y-32655000D03*
X154748000Y-33655000D03*
X153748000Y-32655000D03*
X153748000Y-33655000D03*
X152748000Y-32655000D03*
X152748000Y-33655000D03*
X151748000Y-32655000D03*
X151748000Y-33655000D03*
X150748000Y-32655000D03*
X150748000Y-33655000D03*
X149748000Y-32655000D03*
X149748000Y-33655000D03*
X148748000Y-32655000D03*
X148748000Y-33655000D03*
X147748000Y-32655000D03*
X147748000Y-33655000D03*
X146748000Y-32655000D03*
X146748000Y-33655000D03*
X145748000Y-32655000D03*
X145748000Y-33655000D03*
X144748000Y-32655000D03*
X144748000Y-33655000D03*
X143748000Y-32655000D03*
X143748000Y-33655000D03*
X142748000Y-32655000D03*
D14*
X142748000Y-33655000D03*
%TD*%
M02*
