%TF.GenerationSoftware,KiCad,Pcbnew,(5.1.7)-1*%
%TF.CreationDate,2021-11-27T18:52:12+01:00*%
%TF.ProjectId,SFP-32 Clampshell,5346502d-3332-4204-936c-616d70736865,rev?*%
%TF.SameCoordinates,Original*%
%TF.FileFunction,Copper,L4,Bot*%
%TF.FilePolarity,Positive*%
%FSLAX46Y46*%
G04 Gerber Fmt 4.6, Leading zero omitted, Abs format (unit mm)*
G04 Created by KiCad (PCBNEW (5.1.7)-1) date 2021-11-27 18:52:12*
%MOMM*%
%LPD*%
G01*
G04 APERTURE LIST*
%TA.AperFunction,ComponentPad*%
%ADD10C,0.800000*%
%TD*%
%TA.AperFunction,ComponentPad*%
%ADD11C,6.400000*%
%TD*%
%TA.AperFunction,ComponentPad*%
%ADD12O,0.850000X0.850000*%
%TD*%
%TA.AperFunction,ComponentPad*%
%ADD13R,0.850000X0.850000*%
%TD*%
%TA.AperFunction,ComponentPad*%
%ADD14O,0.800000X1.400000*%
%TD*%
%TA.AperFunction,ComponentPad*%
%ADD15C,1.400000*%
%TD*%
%TA.AperFunction,ViaPad*%
%ADD16C,0.800000*%
%TD*%
%TA.AperFunction,Conductor*%
%ADD17C,0.250000*%
%TD*%
G04 APERTURE END LIST*
D10*
%TO.P,M3,1*%
%TO.N,5*%
X134412056Y-81487944D03*
X132715000Y-80785000D03*
X131017944Y-81487944D03*
X130315000Y-83185000D03*
X131017944Y-84882056D03*
X132715000Y-85585000D03*
X134412056Y-84882056D03*
X135115000Y-83185000D03*
D11*
X132715000Y-83185000D03*
%TD*%
%TO.P,M3,1*%
%TO.N,5*%
X167640000Y-83185000D03*
D10*
X170040000Y-83185000D03*
X169337056Y-84882056D03*
X167640000Y-85585000D03*
X165942944Y-84882056D03*
X165240000Y-83185000D03*
X165942944Y-81487944D03*
X167640000Y-80785000D03*
X169337056Y-81487944D03*
%TD*%
D11*
%TO.P,M3,1*%
%TO.N,5*%
X132715000Y-34290000D03*
D10*
X135115000Y-34290000D03*
X134412056Y-35987056D03*
X132715000Y-36690000D03*
X131017944Y-35987056D03*
X130315000Y-34290000D03*
X131017944Y-32592944D03*
X132715000Y-31890000D03*
X134412056Y-32592944D03*
%TD*%
%TO.P,M3,1*%
%TO.N,5*%
X169337056Y-32592944D03*
X167640000Y-31890000D03*
X165942944Y-32592944D03*
X165240000Y-34290000D03*
X165942944Y-35987056D03*
X167640000Y-36690000D03*
X169337056Y-35987056D03*
X170040000Y-34290000D03*
D11*
X167640000Y-34290000D03*
%TD*%
D12*
%TO.P,J3,6*%
%TO.N,5*%
X150336000Y-93615000D03*
%TO.P,J3,5*%
%TO.N,29*%
X150336000Y-94615000D03*
%TO.P,J3,4*%
%TO.N,15*%
X149336000Y-93615000D03*
%TO.P,J3,3*%
%TO.N,17*%
X149336000Y-94615000D03*
%TO.P,J3,2*%
%TO.N,18*%
X148336000Y-93615000D03*
D13*
%TO.P,J3,1*%
%TO.N,16*%
X148336000Y-94615000D03*
%TD*%
D14*
%TO.P,J2,S1*%
%TO.N,N/C*%
X132035000Y-97455000D03*
X141015000Y-97455000D03*
X140655000Y-91505000D03*
X132395000Y-91505000D03*
%TD*%
D15*
%TO.P,U1,32*%
%TO.N,32*%
X143684999Y-60170000D03*
%TO.P,U1,31*%
%TO.N,31*%
X141144999Y-59670000D03*
%TO.P,U1,30*%
%TO.N,30*%
X146224999Y-59170000D03*
%TO.P,U1,29*%
%TO.N,29*%
X143684999Y-58670000D03*
%TO.P,U1,28*%
%TO.N,28*%
X141144999Y-58170000D03*
%TO.P,U1,27*%
%TO.N,27*%
X146224999Y-57670000D03*
%TO.P,U1,26*%
%TO.N,26*%
X143684999Y-57170000D03*
%TO.P,U1,25*%
%TO.N,25*%
X141144999Y-56670000D03*
%TO.P,U1,24*%
%TO.N,24*%
X148474999Y-51880000D03*
%TO.P,U1,23*%
%TO.N,23*%
X148974999Y-49340000D03*
%TO.P,U1,22*%
%TO.N,22*%
X149474999Y-54420000D03*
%TO.P,U1,21*%
%TO.N,21*%
X149974999Y-51880000D03*
%TO.P,U1,20*%
%TO.N,20*%
X150474999Y-49340000D03*
%TO.P,U1,19*%
%TO.N,19*%
X150974999Y-54420000D03*
%TO.P,U1,18*%
%TO.N,18*%
X151474999Y-51880000D03*
%TO.P,U1,17*%
%TO.N,17*%
X151974999Y-49340000D03*
%TO.P,U1,16*%
%TO.N,16*%
X156764999Y-56670000D03*
%TO.P,U1,15*%
%TO.N,15*%
X159304999Y-57170000D03*
%TO.P,U1,14*%
%TO.N,14*%
X154224999Y-57670000D03*
%TO.P,U1,13*%
%TO.N,13*%
X156764999Y-58170000D03*
%TO.P,U1,12*%
%TO.N,12*%
X159304999Y-58670000D03*
%TO.P,U1,11*%
%TO.N,11*%
X154224999Y-59170000D03*
%TO.P,U1,10*%
%TO.N,10*%
X156764999Y-59670000D03*
%TO.P,U1,9*%
%TO.N,9*%
X159304999Y-60170000D03*
%TO.P,U1,8*%
%TO.N,8*%
X151974999Y-64960000D03*
%TO.P,U1,7*%
%TO.N,7*%
X151474999Y-67500000D03*
%TO.P,U1,6*%
%TO.N,6*%
X150974999Y-62420000D03*
%TO.P,U1,5*%
%TO.N,5*%
X150474999Y-64960000D03*
%TO.P,U1,4*%
%TO.N,18*%
X149974999Y-67500000D03*
%TO.P,U1,3*%
%TO.N,3*%
X149474999Y-62420000D03*
%TO.P,U1,2*%
%TO.N,2*%
X148974999Y-64960000D03*
%TO.P,U1,1*%
%TO.N,1*%
X148474999Y-67500000D03*
%TD*%
D12*
%TO.P,J1,32*%
%TO.N,16*%
X157748000Y-32655000D03*
%TO.P,J1,31*%
%TO.N,17*%
X157748000Y-33655000D03*
%TO.P,J1,30*%
%TO.N,15*%
X156748000Y-32655000D03*
%TO.P,J1,29*%
%TO.N,18*%
X156748000Y-33655000D03*
%TO.P,J1,28*%
%TO.N,14*%
X155748000Y-32655000D03*
%TO.P,J1,27*%
%TO.N,19*%
X155748000Y-33655000D03*
%TO.P,J1,26*%
%TO.N,13*%
X154748000Y-32655000D03*
%TO.P,J1,25*%
%TO.N,20*%
X154748000Y-33655000D03*
%TO.P,J1,24*%
%TO.N,12*%
X153748000Y-32655000D03*
%TO.P,J1,23*%
%TO.N,21*%
X153748000Y-33655000D03*
%TO.P,J1,22*%
%TO.N,11*%
X152748000Y-32655000D03*
%TO.P,J1,21*%
%TO.N,22*%
X152748000Y-33655000D03*
%TO.P,J1,20*%
%TO.N,10*%
X151748000Y-32655000D03*
%TO.P,J1,19*%
%TO.N,23*%
X151748000Y-33655000D03*
%TO.P,J1,18*%
%TO.N,9*%
X150748000Y-32655000D03*
%TO.P,J1,17*%
%TO.N,24*%
X150748000Y-33655000D03*
%TO.P,J1,16*%
%TO.N,8*%
X149748000Y-32655000D03*
%TO.P,J1,15*%
%TO.N,25*%
X149748000Y-33655000D03*
%TO.P,J1,14*%
%TO.N,7*%
X148748000Y-32655000D03*
%TO.P,J1,13*%
%TO.N,26*%
X148748000Y-33655000D03*
%TO.P,J1,12*%
%TO.N,6*%
X147748000Y-32655000D03*
%TO.P,J1,11*%
%TO.N,27*%
X147748000Y-33655000D03*
%TO.P,J1,10*%
%TO.N,5*%
X146748000Y-32655000D03*
%TO.P,J1,9*%
%TO.N,28*%
X146748000Y-33655000D03*
%TO.P,J1,8*%
%TO.N,18*%
X145748000Y-32655000D03*
%TO.P,J1,7*%
%TO.N,29*%
X145748000Y-33655000D03*
%TO.P,J1,6*%
%TO.N,3*%
X144748000Y-32655000D03*
%TO.P,J1,5*%
%TO.N,30*%
X144748000Y-33655000D03*
%TO.P,J1,4*%
%TO.N,2*%
X143748000Y-32655000D03*
%TO.P,J1,3*%
%TO.N,31*%
X143748000Y-33655000D03*
%TO.P,J1,2*%
%TO.N,1*%
X142748000Y-32655000D03*
D13*
%TO.P,J1,1*%
%TO.N,32*%
X142748000Y-33655000D03*
%TD*%
D16*
%TO.N,20*%
X151892000Y-81788000D03*
%TO.N,18*%
X143256000Y-72644000D03*
X147500000Y-83238000D03*
X150622000Y-80010000D03*
%TO.N,17*%
X155702000Y-91948000D03*
%TO.N,8*%
X156210000Y-78740000D03*
%TO.N,7*%
X154432000Y-78740000D03*
%TO.N,5*%
X161605000Y-86675000D03*
X155702000Y-86614000D03*
%TD*%
D17*
%TO.N,30*%
X146224999Y-59170000D02*
X146224999Y-60531001D01*
X146224999Y-60531001D02*
X145034000Y-61722000D01*
X145034000Y-61722000D02*
X139954000Y-61722000D01*
X139954000Y-61722000D02*
X136398000Y-58166000D01*
X136398000Y-58166000D02*
X136398000Y-44958000D01*
X144748000Y-36608000D02*
X144748000Y-33655000D01*
X136398000Y-44958000D02*
X144748000Y-36608000D01*
%TO.N,29*%
X142170000Y-57155001D02*
X142170000Y-43250000D01*
X143684999Y-58670000D02*
X142170000Y-57155001D01*
X145748000Y-39672000D02*
X145748000Y-33655000D01*
X142170000Y-43250000D02*
X145748000Y-39672000D01*
%TO.N,26*%
X143684999Y-57170000D02*
X143684999Y-43513001D01*
X148748000Y-38450000D02*
X148748000Y-33655000D01*
X143684999Y-43513001D02*
X148748000Y-38450000D01*
%TO.N,22*%
X149474999Y-54420000D02*
X148146000Y-54420000D01*
X148146000Y-54420000D02*
X147066000Y-53340000D01*
X147066000Y-53340000D02*
X147066000Y-44450000D01*
X152748000Y-38768000D02*
X152748000Y-33655000D01*
X147066000Y-44450000D02*
X152748000Y-38768000D01*
%TO.N,21*%
X153748000Y-49084001D02*
X153748000Y-33655000D01*
X151977002Y-50854999D02*
X153748000Y-49084001D01*
X151000000Y-50854999D02*
X151977002Y-50854999D01*
X149974999Y-51880000D02*
X151000000Y-50854999D01*
%TO.N,19*%
X150974999Y-54420000D02*
X152082000Y-54420000D01*
X155748000Y-50754000D02*
X155748000Y-33655000D01*
X152082000Y-54420000D02*
X155748000Y-50754000D01*
%TO.N,18*%
X140716000Y-78994000D02*
X140716000Y-74422000D01*
X142748000Y-81026000D02*
X140716000Y-78994000D01*
X142494000Y-72644000D02*
X143256000Y-72644000D01*
X146304000Y-81026000D02*
X142748000Y-81026000D01*
X147500000Y-82222000D02*
X146304000Y-81026000D01*
X140716000Y-74422000D02*
X142494000Y-72644000D01*
X147500000Y-83238000D02*
X147500000Y-82222000D01*
X146304000Y-81026000D02*
X149606000Y-81026000D01*
X149606000Y-81026000D02*
X150622000Y-80010000D01*
X150622000Y-80010000D02*
X150622000Y-80010000D01*
%TO.N,17*%
X149336000Y-94615000D02*
X149336000Y-95488000D01*
X149336000Y-95488000D02*
X150368000Y-96520000D01*
X150368000Y-96520000D02*
X152654000Y-96520000D01*
X152654000Y-96520000D02*
X155702000Y-93472000D01*
X155702000Y-93472000D02*
X155702000Y-91948000D01*
X155702000Y-91948000D02*
X155702000Y-91948000D01*
%TO.N,16*%
X156764999Y-56670000D02*
X156764999Y-42625001D01*
X156764999Y-42625001D02*
X159766000Y-39624000D01*
X159766000Y-39624000D02*
X159766000Y-33528000D01*
X158893000Y-32655000D02*
X157748000Y-32655000D01*
X159766000Y-33528000D02*
X158893000Y-32655000D01*
%TO.N,15*%
X159304999Y-57170000D02*
X159304999Y-52370999D01*
X159304999Y-52370999D02*
X157988000Y-51054000D01*
X157988000Y-51054000D02*
X157988000Y-43434000D01*
X157988000Y-43434000D02*
X160782000Y-40640000D01*
X160782000Y-40640000D02*
X160782000Y-33274000D01*
X160782000Y-33274000D02*
X158750000Y-31242000D01*
X156748000Y-32053960D02*
X156748000Y-32655000D01*
X157559960Y-31242000D02*
X156748000Y-32053960D01*
X158750000Y-31242000D02*
X157559960Y-31242000D01*
%TO.N,12*%
X159304999Y-58670000D02*
X164338000Y-53636999D01*
X164338000Y-53636999D02*
X164338000Y-38862000D01*
X164338000Y-38862000D02*
X162306000Y-36830000D01*
X162306000Y-36830000D02*
X162306000Y-33020000D01*
X162306000Y-33020000D02*
X159766000Y-30480000D01*
X153748000Y-32053960D02*
X153748000Y-32655000D01*
X155321960Y-30480000D02*
X153748000Y-32053960D01*
X159766000Y-30480000D02*
X155321960Y-30480000D01*
%TO.N,7*%
X151474999Y-67500000D02*
X151474999Y-68997001D01*
X151474999Y-68997001D02*
X150622000Y-69850000D01*
X150622000Y-69850000D02*
X144272000Y-69850000D01*
X144272000Y-69850000D02*
X132842000Y-58420000D01*
X132842000Y-58420000D02*
X132842000Y-42672000D01*
X132842000Y-42672000D02*
X139954000Y-35560000D01*
X139954000Y-35560000D02*
X139954000Y-31750000D01*
X139954000Y-31750000D02*
X141224000Y-30480000D01*
X148748000Y-32053960D02*
X148748000Y-32655000D01*
X147174040Y-30480000D02*
X148748000Y-32053960D01*
X141224000Y-30480000D02*
X147174040Y-30480000D01*
%TO.N,5*%
X161605000Y-86675000D02*
X160650000Y-87630000D01*
X160650000Y-87630000D02*
X156718000Y-87630000D01*
X156718000Y-87630000D02*
X155702000Y-86614000D01*
X155702000Y-86614000D02*
X155702000Y-86614000D01*
X150474999Y-64960000D02*
X152188999Y-63246000D01*
X152188999Y-63246000D02*
X158496000Y-63246000D01*
X167640000Y-54102000D02*
X167640000Y-34290000D01*
X158496000Y-63246000D02*
X167640000Y-54102000D01*
%TO.N,2*%
X148974999Y-64960000D02*
X141668000Y-64960000D01*
X141668000Y-64960000D02*
X134112000Y-57404000D01*
X134112000Y-57404000D02*
X134112000Y-43434000D01*
X134112000Y-43434000D02*
X140970000Y-36576000D01*
X140970000Y-36576000D02*
X140970000Y-32258000D01*
X140970000Y-32258000D02*
X141986000Y-31242000D01*
X141986000Y-31242000D02*
X142936040Y-31242000D01*
X143748000Y-32053960D02*
X143748000Y-32655000D01*
X142936040Y-31242000D02*
X143748000Y-32053960D01*
%TD*%
M02*
