%TF.GenerationSoftware,KiCad,Pcbnew,(5.1.7)-1*%
%TF.CreationDate,2021-11-27T18:52:12+01:00*%
%TF.ProjectId,SFP-32 Clampshell,5346502d-3332-4204-936c-616d70736865,rev?*%
%TF.SameCoordinates,Original*%
%TF.FileFunction,Copper,L2,Inr*%
%TF.FilePolarity,Positive*%
%FSLAX46Y46*%
G04 Gerber Fmt 4.6, Leading zero omitted, Abs format (unit mm)*
G04 Created by KiCad (PCBNEW (5.1.7)-1) date 2021-11-27 18:52:12*
%MOMM*%
%LPD*%
G01*
G04 APERTURE LIST*
%TA.AperFunction,ComponentPad*%
%ADD10C,0.800000*%
%TD*%
%TA.AperFunction,ComponentPad*%
%ADD11C,6.400000*%
%TD*%
%TA.AperFunction,ComponentPad*%
%ADD12O,0.850000X0.850000*%
%TD*%
%TA.AperFunction,ComponentPad*%
%ADD13R,0.850000X0.850000*%
%TD*%
%TA.AperFunction,ComponentPad*%
%ADD14O,0.800000X1.400000*%
%TD*%
%TA.AperFunction,ComponentPad*%
%ADD15C,1.400000*%
%TD*%
%TA.AperFunction,ViaPad*%
%ADD16C,0.800000*%
%TD*%
%TA.AperFunction,Conductor*%
%ADD17C,0.250000*%
%TD*%
%TA.AperFunction,Conductor*%
%ADD18C,0.254000*%
%TD*%
%TA.AperFunction,Conductor*%
%ADD19C,0.100000*%
%TD*%
G04 APERTURE END LIST*
D10*
%TO.N,5*%
%TO.C,M3*%
X134412056Y-81487944D03*
X132715000Y-80785000D03*
X131017944Y-81487944D03*
X130315000Y-83185000D03*
X131017944Y-84882056D03*
X132715000Y-85585000D03*
X134412056Y-84882056D03*
X135115000Y-83185000D03*
D11*
X132715000Y-83185000D03*
%TD*%
%TO.N,5*%
%TO.C,M3*%
X167640000Y-83185000D03*
D10*
X170040000Y-83185000D03*
X169337056Y-84882056D03*
X167640000Y-85585000D03*
X165942944Y-84882056D03*
X165240000Y-83185000D03*
X165942944Y-81487944D03*
X167640000Y-80785000D03*
X169337056Y-81487944D03*
%TD*%
D11*
%TO.N,5*%
%TO.C,M3*%
X132715000Y-34290000D03*
D10*
X135115000Y-34290000D03*
X134412056Y-35987056D03*
X132715000Y-36690000D03*
X131017944Y-35987056D03*
X130315000Y-34290000D03*
X131017944Y-32592944D03*
X132715000Y-31890000D03*
X134412056Y-32592944D03*
%TD*%
%TO.N,5*%
%TO.C,M3*%
X169337056Y-32592944D03*
X167640000Y-31890000D03*
X165942944Y-32592944D03*
X165240000Y-34290000D03*
X165942944Y-35987056D03*
X167640000Y-36690000D03*
X169337056Y-35987056D03*
X170040000Y-34290000D03*
D11*
X167640000Y-34290000D03*
%TD*%
D12*
%TO.N,5*%
%TO.C,J3*%
X150336000Y-93615000D03*
%TO.N,29*%
X150336000Y-94615000D03*
%TO.N,15*%
X149336000Y-93615000D03*
%TO.N,17*%
X149336000Y-94615000D03*
%TO.N,18*%
X148336000Y-93615000D03*
D13*
%TO.N,16*%
X148336000Y-94615000D03*
%TD*%
D14*
%TO.N,N/C*%
%TO.C,J2*%
X132035000Y-97455000D03*
X141015000Y-97455000D03*
X140655000Y-91505000D03*
X132395000Y-91505000D03*
%TD*%
D15*
%TO.N,32*%
%TO.C,U1*%
X143684999Y-60170000D03*
%TO.N,31*%
X141144999Y-59670000D03*
%TO.N,30*%
X146224999Y-59170000D03*
%TO.N,29*%
X143684999Y-58670000D03*
%TO.N,28*%
X141144999Y-58170000D03*
%TO.N,27*%
X146224999Y-57670000D03*
%TO.N,26*%
X143684999Y-57170000D03*
%TO.N,25*%
X141144999Y-56670000D03*
%TO.N,24*%
X148474999Y-51880000D03*
%TO.N,23*%
X148974999Y-49340000D03*
%TO.N,22*%
X149474999Y-54420000D03*
%TO.N,21*%
X149974999Y-51880000D03*
%TO.N,20*%
X150474999Y-49340000D03*
%TO.N,19*%
X150974999Y-54420000D03*
%TO.N,18*%
X151474999Y-51880000D03*
%TO.N,17*%
X151974999Y-49340000D03*
%TO.N,16*%
X156764999Y-56670000D03*
%TO.N,15*%
X159304999Y-57170000D03*
%TO.N,14*%
X154224999Y-57670000D03*
%TO.N,13*%
X156764999Y-58170000D03*
%TO.N,12*%
X159304999Y-58670000D03*
%TO.N,11*%
X154224999Y-59170000D03*
%TO.N,10*%
X156764999Y-59670000D03*
%TO.N,9*%
X159304999Y-60170000D03*
%TO.N,8*%
X151974999Y-64960000D03*
%TO.N,7*%
X151474999Y-67500000D03*
%TO.N,6*%
X150974999Y-62420000D03*
%TO.N,5*%
X150474999Y-64960000D03*
%TO.N,18*%
X149974999Y-67500000D03*
%TO.N,3*%
X149474999Y-62420000D03*
%TO.N,2*%
X148974999Y-64960000D03*
%TO.N,1*%
X148474999Y-67500000D03*
%TD*%
D12*
%TO.N,16*%
%TO.C,J1*%
X157748000Y-32655000D03*
%TO.N,17*%
X157748000Y-33655000D03*
%TO.N,15*%
X156748000Y-32655000D03*
%TO.N,18*%
X156748000Y-33655000D03*
%TO.N,14*%
X155748000Y-32655000D03*
%TO.N,19*%
X155748000Y-33655000D03*
%TO.N,13*%
X154748000Y-32655000D03*
%TO.N,20*%
X154748000Y-33655000D03*
%TO.N,12*%
X153748000Y-32655000D03*
%TO.N,21*%
X153748000Y-33655000D03*
%TO.N,11*%
X152748000Y-32655000D03*
%TO.N,22*%
X152748000Y-33655000D03*
%TO.N,10*%
X151748000Y-32655000D03*
%TO.N,23*%
X151748000Y-33655000D03*
%TO.N,9*%
X150748000Y-32655000D03*
%TO.N,24*%
X150748000Y-33655000D03*
%TO.N,8*%
X149748000Y-32655000D03*
%TO.N,25*%
X149748000Y-33655000D03*
%TO.N,7*%
X148748000Y-32655000D03*
%TO.N,26*%
X148748000Y-33655000D03*
%TO.N,6*%
X147748000Y-32655000D03*
%TO.N,27*%
X147748000Y-33655000D03*
%TO.N,5*%
X146748000Y-32655000D03*
%TO.N,28*%
X146748000Y-33655000D03*
%TO.N,18*%
X145748000Y-32655000D03*
%TO.N,29*%
X145748000Y-33655000D03*
%TO.N,3*%
X144748000Y-32655000D03*
%TO.N,30*%
X144748000Y-33655000D03*
%TO.N,2*%
X143748000Y-32655000D03*
%TO.N,31*%
X143748000Y-33655000D03*
%TO.N,1*%
X142748000Y-32655000D03*
D13*
%TO.N,32*%
X142748000Y-33655000D03*
%TD*%
D16*
%TO.N,20*%
X151892000Y-81788000D03*
%TO.N,18*%
X143256000Y-72644000D03*
X147500000Y-83238000D03*
X150622000Y-80010000D03*
%TO.N,17*%
X155702000Y-91948000D03*
%TO.N,8*%
X156210000Y-78740000D03*
%TO.N,7*%
X154432000Y-78740000D03*
%TO.N,5*%
X161605000Y-86675000D03*
X155702000Y-86614000D03*
%TD*%
D17*
%TO.N,25*%
X141144999Y-56670000D02*
X141144999Y-52403001D01*
X141144999Y-52403001D02*
X146558000Y-46990000D01*
X146558000Y-46990000D02*
X146558000Y-41910000D01*
X149748000Y-38720000D02*
X149748000Y-33655000D01*
X146558000Y-41910000D02*
X149748000Y-38720000D01*
%TO.N,18*%
X151474999Y-51880000D02*
X153098000Y-51880000D01*
X156748000Y-48230000D02*
X156748000Y-33655000D01*
X153098000Y-51880000D02*
X156748000Y-48230000D01*
%TO.N,11*%
X154224999Y-59170000D02*
X152400000Y-57345001D01*
X152400000Y-57345001D02*
X152400000Y-56134000D01*
X152400000Y-56134000D02*
X157988000Y-50546000D01*
X157988000Y-50546000D02*
X157988000Y-43180000D01*
X157988000Y-43180000D02*
X160528000Y-40640000D01*
X160528000Y-40640000D02*
X160528000Y-33020000D01*
X160528000Y-33020000D02*
X158750000Y-31242000D01*
X152748000Y-32053960D02*
X152748000Y-32655000D01*
X153559960Y-31242000D02*
X152748000Y-32053960D01*
X158750000Y-31242000D02*
X153559960Y-31242000D01*
%TO.N,9*%
X159304999Y-60170000D02*
X161572000Y-60170000D01*
X161572000Y-60170000D02*
X164592000Y-57150000D01*
X164592000Y-57150000D02*
X164592000Y-39116000D01*
X164592000Y-39116000D02*
X162306000Y-36830000D01*
X162306000Y-36830000D02*
X162306000Y-33274000D01*
X162306000Y-33274000D02*
X159512000Y-30480000D01*
X152321960Y-30480000D02*
X150748000Y-32053960D01*
X150748000Y-32053960D02*
X150748000Y-32655000D01*
X159512000Y-30480000D02*
X152321960Y-30480000D01*
%TO.N,8*%
X149748000Y-32053960D02*
X149748000Y-32655000D01*
X148174040Y-30480000D02*
X149748000Y-32053960D01*
X139192000Y-38354000D02*
X139192000Y-32512000D01*
X134112000Y-43434000D02*
X139192000Y-38354000D01*
X134112000Y-57150000D02*
X134112000Y-43434000D01*
X146812000Y-69850000D02*
X134112000Y-57150000D01*
X141224000Y-30480000D02*
X148174040Y-30480000D01*
X153416000Y-68580000D02*
X152146000Y-69850000D01*
X153416000Y-66401001D02*
X153416000Y-68580000D01*
X139192000Y-32512000D02*
X141224000Y-30480000D01*
X151974999Y-64960000D02*
X153416000Y-66401001D01*
X156210000Y-75184000D02*
X150876000Y-69850000D01*
X156210000Y-78740000D02*
X156210000Y-75184000D01*
X150876000Y-69850000D02*
X146812000Y-69850000D01*
X152146000Y-69850000D02*
X150876000Y-69850000D01*
%TO.N,3*%
X144748000Y-32053960D02*
X144748000Y-32655000D01*
X143936040Y-31242000D02*
X144748000Y-32053960D01*
X141986000Y-31242000D02*
X143936040Y-31242000D01*
X140208000Y-33020000D02*
X141986000Y-31242000D01*
X140208000Y-41148000D02*
X140208000Y-33020000D01*
X136240001Y-45115999D02*
X140208000Y-41148000D01*
X136240001Y-57246001D02*
X136240001Y-45115999D01*
X141414000Y-62420000D02*
X136240001Y-57246001D01*
X149474999Y-62420000D02*
X141414000Y-62420000D01*
%TD*%
D18*
%TO.N,5*%
X153772226Y-77936063D02*
X153628063Y-78080226D01*
X153514795Y-78249744D01*
X153436774Y-78438102D01*
X153397000Y-78638061D01*
X153397000Y-78841939D01*
X153436774Y-79041898D01*
X153514795Y-79230256D01*
X153628063Y-79399774D01*
X153772226Y-79543937D01*
X153941744Y-79657205D01*
X154130102Y-79735226D01*
X154330061Y-79775000D01*
X154533939Y-79775000D01*
X154733898Y-79735226D01*
X154922256Y-79657205D01*
X155091774Y-79543937D01*
X155235937Y-79399774D01*
X155321000Y-79272468D01*
X155406063Y-79399774D01*
X155550226Y-79543937D01*
X155719744Y-79657205D01*
X155908102Y-79735226D01*
X156108061Y-79775000D01*
X156311939Y-79775000D01*
X156511898Y-79735226D01*
X156700256Y-79657205D01*
X156869774Y-79543937D01*
X157013937Y-79399774D01*
X157127205Y-79230256D01*
X157205226Y-79041898D01*
X157245000Y-78841939D01*
X157245000Y-78638061D01*
X157205226Y-78438102D01*
X157127205Y-78249744D01*
X157013937Y-78080226D01*
X156970000Y-78036289D01*
X156970000Y-77851000D01*
X171630001Y-77851000D01*
X171630001Y-99670000D01*
X128725000Y-99670000D01*
X128725000Y-97104163D01*
X131000000Y-97104163D01*
X131000000Y-97805838D01*
X131014976Y-97957895D01*
X131074160Y-98152993D01*
X131170267Y-98332797D01*
X131299605Y-98490396D01*
X131457204Y-98619734D01*
X131637008Y-98715841D01*
X131832106Y-98775024D01*
X132035000Y-98795007D01*
X132237895Y-98775024D01*
X132432993Y-98715841D01*
X132612797Y-98619734D01*
X132770396Y-98490396D01*
X132899734Y-98332797D01*
X132995841Y-98152992D01*
X133055024Y-97957894D01*
X133070000Y-97805837D01*
X133070000Y-97104163D01*
X139980000Y-97104163D01*
X139980000Y-97805838D01*
X139994976Y-97957895D01*
X140054160Y-98152993D01*
X140150267Y-98332797D01*
X140279605Y-98490396D01*
X140437204Y-98619734D01*
X140617008Y-98715841D01*
X140812106Y-98775024D01*
X141015000Y-98795007D01*
X141217895Y-98775024D01*
X141412993Y-98715841D01*
X141592797Y-98619734D01*
X141750396Y-98490396D01*
X141879734Y-98332797D01*
X141975841Y-98152992D01*
X142035024Y-97957894D01*
X142050000Y-97805837D01*
X142050000Y-97104162D01*
X142035024Y-96952105D01*
X141975841Y-96757007D01*
X141879734Y-96577203D01*
X141750396Y-96419604D01*
X141592797Y-96290266D01*
X141412992Y-96194159D01*
X141217894Y-96134976D01*
X141015000Y-96114993D01*
X140812105Y-96134976D01*
X140617007Y-96194159D01*
X140437203Y-96290266D01*
X140279604Y-96419604D01*
X140150266Y-96577203D01*
X140054159Y-96757008D01*
X139994976Y-96952106D01*
X139980000Y-97104163D01*
X133070000Y-97104163D01*
X133070000Y-97104162D01*
X133055024Y-96952105D01*
X132995841Y-96757007D01*
X132899734Y-96577203D01*
X132770396Y-96419604D01*
X132612797Y-96290266D01*
X132432992Y-96194159D01*
X132237894Y-96134976D01*
X132035000Y-96114993D01*
X131832105Y-96134976D01*
X131637007Y-96194159D01*
X131457203Y-96290266D01*
X131299604Y-96419604D01*
X131170266Y-96577203D01*
X131074159Y-96757008D01*
X131014976Y-96952106D01*
X131000000Y-97104163D01*
X128725000Y-97104163D01*
X128725000Y-94190000D01*
X147272928Y-94190000D01*
X147272928Y-95040000D01*
X147285188Y-95164482D01*
X147321498Y-95284180D01*
X147380463Y-95394494D01*
X147459815Y-95491185D01*
X147556506Y-95570537D01*
X147666820Y-95629502D01*
X147786518Y-95665812D01*
X147911000Y-95678072D01*
X148761000Y-95678072D01*
X148885482Y-95665812D01*
X149005180Y-95629502D01*
X149009603Y-95627138D01*
X149026809Y-95634265D01*
X149231599Y-95675000D01*
X149440401Y-95675000D01*
X149645191Y-95634265D01*
X149836000Y-95555229D01*
X150026809Y-95634265D01*
X150231599Y-95675000D01*
X150440401Y-95675000D01*
X150645191Y-95634265D01*
X150838098Y-95554360D01*
X151011711Y-95438356D01*
X151159356Y-95290711D01*
X151275360Y-95117098D01*
X151355265Y-94924191D01*
X151396000Y-94719401D01*
X151396000Y-94510599D01*
X151355265Y-94305809D01*
X151275360Y-94112902D01*
X151272647Y-94108841D01*
X151279368Y-94098394D01*
X151355547Y-93905064D01*
X151229621Y-93742000D01*
X150937413Y-93742000D01*
X150838098Y-93675640D01*
X150645191Y-93595735D01*
X150440401Y-93555000D01*
X150396000Y-93555000D01*
X150396000Y-93510599D01*
X150355265Y-93305809D01*
X150275360Y-93112902D01*
X150209000Y-93013587D01*
X150209000Y-92722743D01*
X150463000Y-92722743D01*
X150463000Y-93488000D01*
X151229621Y-93488000D01*
X151355547Y-93324936D01*
X151279368Y-93131606D01*
X151166936Y-92956852D01*
X151022571Y-92807391D01*
X150851822Y-92688966D01*
X150661250Y-92606128D01*
X150626062Y-92595460D01*
X150463000Y-92722743D01*
X150209000Y-92722743D01*
X150045938Y-92595460D01*
X150010750Y-92606128D01*
X149843118Y-92678994D01*
X149838098Y-92675640D01*
X149645191Y-92595735D01*
X149440401Y-92555000D01*
X149231599Y-92555000D01*
X149026809Y-92595735D01*
X148836000Y-92674771D01*
X148645191Y-92595735D01*
X148440401Y-92555000D01*
X148231599Y-92555000D01*
X148026809Y-92595735D01*
X147833902Y-92675640D01*
X147660289Y-92791644D01*
X147512644Y-92939289D01*
X147396640Y-93112902D01*
X147316735Y-93305809D01*
X147276000Y-93510599D01*
X147276000Y-93719401D01*
X147316735Y-93924191D01*
X147323862Y-93941397D01*
X147321498Y-93945820D01*
X147285188Y-94065518D01*
X147272928Y-94190000D01*
X128725000Y-94190000D01*
X128725000Y-91154163D01*
X131360000Y-91154163D01*
X131360000Y-91855838D01*
X131374976Y-92007895D01*
X131434160Y-92202993D01*
X131530267Y-92382797D01*
X131659605Y-92540396D01*
X131817204Y-92669734D01*
X131997008Y-92765841D01*
X132192106Y-92825024D01*
X132395000Y-92845007D01*
X132597895Y-92825024D01*
X132792993Y-92765841D01*
X132972797Y-92669734D01*
X133130396Y-92540396D01*
X133259734Y-92382797D01*
X133355841Y-92202992D01*
X133415024Y-92007894D01*
X133430000Y-91855837D01*
X133430000Y-91154162D01*
X133422422Y-91077216D01*
X133536964Y-91000681D01*
X133670681Y-90866964D01*
X133775741Y-90709731D01*
X133848108Y-90535022D01*
X133885000Y-90349552D01*
X133885000Y-90255000D01*
X139010355Y-90255000D01*
X139028890Y-90443193D01*
X139083784Y-90624154D01*
X139172927Y-90790928D01*
X139292893Y-90937107D01*
X139439072Y-91057073D01*
X139605846Y-91146216D01*
X139620349Y-91150616D01*
X139620000Y-91154163D01*
X139620000Y-91855838D01*
X139634976Y-92007895D01*
X139694160Y-92202993D01*
X139790267Y-92382797D01*
X139919605Y-92540396D01*
X140077204Y-92669734D01*
X140257008Y-92765841D01*
X140452106Y-92825024D01*
X140655000Y-92845007D01*
X140857895Y-92825024D01*
X141052993Y-92765841D01*
X141232797Y-92669734D01*
X141390396Y-92540396D01*
X141519734Y-92382797D01*
X141615841Y-92202992D01*
X141675024Y-92007894D01*
X141690000Y-91855837D01*
X141690000Y-91846061D01*
X154667000Y-91846061D01*
X154667000Y-92049939D01*
X154706774Y-92249898D01*
X154784795Y-92438256D01*
X154898063Y-92607774D01*
X155042226Y-92751937D01*
X155211744Y-92865205D01*
X155400102Y-92943226D01*
X155600061Y-92983000D01*
X155803939Y-92983000D01*
X156003898Y-92943226D01*
X156192256Y-92865205D01*
X156361774Y-92751937D01*
X156505937Y-92607774D01*
X156619205Y-92438256D01*
X156697226Y-92249898D01*
X156737000Y-92049939D01*
X156737000Y-91846061D01*
X156697226Y-91646102D01*
X156619205Y-91457744D01*
X156505937Y-91288226D01*
X156361774Y-91144063D01*
X156192256Y-91030795D01*
X156003898Y-90952774D01*
X155803939Y-90913000D01*
X155600061Y-90913000D01*
X155400102Y-90952774D01*
X155211744Y-91030795D01*
X155042226Y-91144063D01*
X154898063Y-91288226D01*
X154784795Y-91457744D01*
X154706774Y-91646102D01*
X154667000Y-91846061D01*
X141690000Y-91846061D01*
X141690000Y-91154162D01*
X141675024Y-91002105D01*
X141615841Y-90807007D01*
X141519734Y-90627203D01*
X141390396Y-90469604D01*
X141232797Y-90340266D01*
X141231325Y-90339479D01*
X141239645Y-90255000D01*
X141221110Y-90066807D01*
X141166216Y-89885846D01*
X141077073Y-89719072D01*
X140957107Y-89572893D01*
X140810928Y-89452927D01*
X140644154Y-89363784D01*
X140463193Y-89308890D01*
X140322162Y-89295000D01*
X139927838Y-89295000D01*
X139786807Y-89308890D01*
X139605846Y-89363784D01*
X139439072Y-89452927D01*
X139292893Y-89572893D01*
X139172927Y-89719072D01*
X139083784Y-89885846D01*
X139028890Y-90066807D01*
X139010355Y-90255000D01*
X133885000Y-90255000D01*
X133885000Y-90160448D01*
X133848108Y-89974978D01*
X133775741Y-89800269D01*
X133670681Y-89643036D01*
X133536964Y-89509319D01*
X133379731Y-89404259D01*
X133205022Y-89331892D01*
X133019552Y-89295000D01*
X132830448Y-89295000D01*
X132644978Y-89331892D01*
X132470269Y-89404259D01*
X132313036Y-89509319D01*
X132179319Y-89643036D01*
X132074259Y-89800269D01*
X132001892Y-89974978D01*
X131965000Y-90160448D01*
X131965000Y-90261267D01*
X131817203Y-90340266D01*
X131659604Y-90469604D01*
X131530266Y-90627203D01*
X131434159Y-90807008D01*
X131374976Y-91002106D01*
X131360000Y-91154163D01*
X128725000Y-91154163D01*
X128725000Y-85885881D01*
X130193724Y-85885881D01*
X130553912Y-86375548D01*
X131217882Y-86735849D01*
X131939385Y-86959694D01*
X132690695Y-87038480D01*
X133442938Y-86969178D01*
X134167208Y-86754452D01*
X134835670Y-86402555D01*
X134876088Y-86375548D01*
X135236276Y-85885881D01*
X165118724Y-85885881D01*
X165478912Y-86375548D01*
X166142882Y-86735849D01*
X166864385Y-86959694D01*
X167615695Y-87038480D01*
X168367938Y-86969178D01*
X169092208Y-86754452D01*
X169760670Y-86402555D01*
X169801088Y-86375548D01*
X170161276Y-85885881D01*
X167640000Y-83364605D01*
X165118724Y-85885881D01*
X135236276Y-85885881D01*
X132715000Y-83364605D01*
X130193724Y-85885881D01*
X128725000Y-85885881D01*
X128725000Y-83160695D01*
X128861520Y-83160695D01*
X128930822Y-83912938D01*
X129145548Y-84637208D01*
X129497445Y-85305670D01*
X129524452Y-85346088D01*
X130014119Y-85706276D01*
X132535395Y-83185000D01*
X132894605Y-83185000D01*
X135415881Y-85706276D01*
X135905548Y-85346088D01*
X136265849Y-84682118D01*
X136489694Y-83960615D01*
X136568480Y-83209305D01*
X136561733Y-83136061D01*
X146465000Y-83136061D01*
X146465000Y-83339939D01*
X146504774Y-83539898D01*
X146582795Y-83728256D01*
X146696063Y-83897774D01*
X146840226Y-84041937D01*
X147009744Y-84155205D01*
X147198102Y-84233226D01*
X147398061Y-84273000D01*
X147601939Y-84273000D01*
X147801898Y-84233226D01*
X147990256Y-84155205D01*
X148159774Y-84041937D01*
X148303937Y-83897774D01*
X148417205Y-83728256D01*
X148495226Y-83539898D01*
X148535000Y-83339939D01*
X148535000Y-83160695D01*
X163786520Y-83160695D01*
X163855822Y-83912938D01*
X164070548Y-84637208D01*
X164422445Y-85305670D01*
X164449452Y-85346088D01*
X164939119Y-85706276D01*
X167460395Y-83185000D01*
X167819605Y-83185000D01*
X170340881Y-85706276D01*
X170830548Y-85346088D01*
X171190849Y-84682118D01*
X171414694Y-83960615D01*
X171493480Y-83209305D01*
X171424178Y-82457062D01*
X171209452Y-81732792D01*
X170857555Y-81064330D01*
X170830548Y-81023912D01*
X170340881Y-80663724D01*
X167819605Y-83185000D01*
X167460395Y-83185000D01*
X164939119Y-80663724D01*
X164449452Y-81023912D01*
X164089151Y-81687882D01*
X163865306Y-82409385D01*
X163786520Y-83160695D01*
X148535000Y-83160695D01*
X148535000Y-83136061D01*
X148495226Y-82936102D01*
X148417205Y-82747744D01*
X148303937Y-82578226D01*
X148159774Y-82434063D01*
X147990256Y-82320795D01*
X147801898Y-82242774D01*
X147601939Y-82203000D01*
X147398061Y-82203000D01*
X147198102Y-82242774D01*
X147009744Y-82320795D01*
X146840226Y-82434063D01*
X146696063Y-82578226D01*
X146582795Y-82747744D01*
X146504774Y-82936102D01*
X146465000Y-83136061D01*
X136561733Y-83136061D01*
X136499178Y-82457062D01*
X136284452Y-81732792D01*
X136259852Y-81686061D01*
X150857000Y-81686061D01*
X150857000Y-81889939D01*
X150896774Y-82089898D01*
X150974795Y-82278256D01*
X151088063Y-82447774D01*
X151232226Y-82591937D01*
X151401744Y-82705205D01*
X151590102Y-82783226D01*
X151790061Y-82823000D01*
X151993939Y-82823000D01*
X152193898Y-82783226D01*
X152382256Y-82705205D01*
X152551774Y-82591937D01*
X152695937Y-82447774D01*
X152809205Y-82278256D01*
X152887226Y-82089898D01*
X152927000Y-81889939D01*
X152927000Y-81686061D01*
X152887226Y-81486102D01*
X152809205Y-81297744D01*
X152695937Y-81128226D01*
X152551774Y-80984063D01*
X152382256Y-80870795D01*
X152193898Y-80792774D01*
X151993939Y-80753000D01*
X151790061Y-80753000D01*
X151590102Y-80792774D01*
X151401744Y-80870795D01*
X151232226Y-80984063D01*
X151088063Y-81128226D01*
X150974795Y-81297744D01*
X150896774Y-81486102D01*
X150857000Y-81686061D01*
X136259852Y-81686061D01*
X135932555Y-81064330D01*
X135905548Y-81023912D01*
X135415881Y-80663724D01*
X132894605Y-83185000D01*
X132535395Y-83185000D01*
X130014119Y-80663724D01*
X129524452Y-81023912D01*
X129164151Y-81687882D01*
X128940306Y-82409385D01*
X128861520Y-83160695D01*
X128725000Y-83160695D01*
X128725000Y-80484119D01*
X130193724Y-80484119D01*
X132715000Y-83005395D01*
X135236276Y-80484119D01*
X134876088Y-79994452D01*
X134716885Y-79908061D01*
X149587000Y-79908061D01*
X149587000Y-80111939D01*
X149626774Y-80311898D01*
X149704795Y-80500256D01*
X149818063Y-80669774D01*
X149962226Y-80813937D01*
X150131744Y-80927205D01*
X150320102Y-81005226D01*
X150520061Y-81045000D01*
X150723939Y-81045000D01*
X150923898Y-81005226D01*
X151112256Y-80927205D01*
X151281774Y-80813937D01*
X151425937Y-80669774D01*
X151539205Y-80500256D01*
X151545889Y-80484119D01*
X165118724Y-80484119D01*
X167640000Y-83005395D01*
X170161276Y-80484119D01*
X169801088Y-79994452D01*
X169137118Y-79634151D01*
X168415615Y-79410306D01*
X167664305Y-79331520D01*
X166912062Y-79400822D01*
X166187792Y-79615548D01*
X165519330Y-79967445D01*
X165478912Y-79994452D01*
X165118724Y-80484119D01*
X151545889Y-80484119D01*
X151617226Y-80311898D01*
X151657000Y-80111939D01*
X151657000Y-79908061D01*
X151617226Y-79708102D01*
X151539205Y-79519744D01*
X151425937Y-79350226D01*
X151281774Y-79206063D01*
X151112256Y-79092795D01*
X150923898Y-79014774D01*
X150723939Y-78975000D01*
X150520061Y-78975000D01*
X150320102Y-79014774D01*
X150131744Y-79092795D01*
X149962226Y-79206063D01*
X149818063Y-79350226D01*
X149704795Y-79519744D01*
X149626774Y-79708102D01*
X149587000Y-79908061D01*
X134716885Y-79908061D01*
X134212118Y-79634151D01*
X133490615Y-79410306D01*
X132739305Y-79331520D01*
X131987062Y-79400822D01*
X131262792Y-79615548D01*
X130594330Y-79967445D01*
X130553912Y-79994452D01*
X130193724Y-80484119D01*
X128725000Y-80484119D01*
X128725000Y-77851000D01*
X153899532Y-77851000D01*
X153772226Y-77936063D01*
%TA.AperFunction,Conductor*%
D19*
G36*
X153772226Y-77936063D02*
G01*
X153628063Y-78080226D01*
X153514795Y-78249744D01*
X153436774Y-78438102D01*
X153397000Y-78638061D01*
X153397000Y-78841939D01*
X153436774Y-79041898D01*
X153514795Y-79230256D01*
X153628063Y-79399774D01*
X153772226Y-79543937D01*
X153941744Y-79657205D01*
X154130102Y-79735226D01*
X154330061Y-79775000D01*
X154533939Y-79775000D01*
X154733898Y-79735226D01*
X154922256Y-79657205D01*
X155091774Y-79543937D01*
X155235937Y-79399774D01*
X155321000Y-79272468D01*
X155406063Y-79399774D01*
X155550226Y-79543937D01*
X155719744Y-79657205D01*
X155908102Y-79735226D01*
X156108061Y-79775000D01*
X156311939Y-79775000D01*
X156511898Y-79735226D01*
X156700256Y-79657205D01*
X156869774Y-79543937D01*
X157013937Y-79399774D01*
X157127205Y-79230256D01*
X157205226Y-79041898D01*
X157245000Y-78841939D01*
X157245000Y-78638061D01*
X157205226Y-78438102D01*
X157127205Y-78249744D01*
X157013937Y-78080226D01*
X156970000Y-78036289D01*
X156970000Y-77851000D01*
X171630001Y-77851000D01*
X171630001Y-99670000D01*
X128725000Y-99670000D01*
X128725000Y-97104163D01*
X131000000Y-97104163D01*
X131000000Y-97805838D01*
X131014976Y-97957895D01*
X131074160Y-98152993D01*
X131170267Y-98332797D01*
X131299605Y-98490396D01*
X131457204Y-98619734D01*
X131637008Y-98715841D01*
X131832106Y-98775024D01*
X132035000Y-98795007D01*
X132237895Y-98775024D01*
X132432993Y-98715841D01*
X132612797Y-98619734D01*
X132770396Y-98490396D01*
X132899734Y-98332797D01*
X132995841Y-98152992D01*
X133055024Y-97957894D01*
X133070000Y-97805837D01*
X133070000Y-97104163D01*
X139980000Y-97104163D01*
X139980000Y-97805838D01*
X139994976Y-97957895D01*
X140054160Y-98152993D01*
X140150267Y-98332797D01*
X140279605Y-98490396D01*
X140437204Y-98619734D01*
X140617008Y-98715841D01*
X140812106Y-98775024D01*
X141015000Y-98795007D01*
X141217895Y-98775024D01*
X141412993Y-98715841D01*
X141592797Y-98619734D01*
X141750396Y-98490396D01*
X141879734Y-98332797D01*
X141975841Y-98152992D01*
X142035024Y-97957894D01*
X142050000Y-97805837D01*
X142050000Y-97104162D01*
X142035024Y-96952105D01*
X141975841Y-96757007D01*
X141879734Y-96577203D01*
X141750396Y-96419604D01*
X141592797Y-96290266D01*
X141412992Y-96194159D01*
X141217894Y-96134976D01*
X141015000Y-96114993D01*
X140812105Y-96134976D01*
X140617007Y-96194159D01*
X140437203Y-96290266D01*
X140279604Y-96419604D01*
X140150266Y-96577203D01*
X140054159Y-96757008D01*
X139994976Y-96952106D01*
X139980000Y-97104163D01*
X133070000Y-97104163D01*
X133070000Y-97104162D01*
X133055024Y-96952105D01*
X132995841Y-96757007D01*
X132899734Y-96577203D01*
X132770396Y-96419604D01*
X132612797Y-96290266D01*
X132432992Y-96194159D01*
X132237894Y-96134976D01*
X132035000Y-96114993D01*
X131832105Y-96134976D01*
X131637007Y-96194159D01*
X131457203Y-96290266D01*
X131299604Y-96419604D01*
X131170266Y-96577203D01*
X131074159Y-96757008D01*
X131014976Y-96952106D01*
X131000000Y-97104163D01*
X128725000Y-97104163D01*
X128725000Y-94190000D01*
X147272928Y-94190000D01*
X147272928Y-95040000D01*
X147285188Y-95164482D01*
X147321498Y-95284180D01*
X147380463Y-95394494D01*
X147459815Y-95491185D01*
X147556506Y-95570537D01*
X147666820Y-95629502D01*
X147786518Y-95665812D01*
X147911000Y-95678072D01*
X148761000Y-95678072D01*
X148885482Y-95665812D01*
X149005180Y-95629502D01*
X149009603Y-95627138D01*
X149026809Y-95634265D01*
X149231599Y-95675000D01*
X149440401Y-95675000D01*
X149645191Y-95634265D01*
X149836000Y-95555229D01*
X150026809Y-95634265D01*
X150231599Y-95675000D01*
X150440401Y-95675000D01*
X150645191Y-95634265D01*
X150838098Y-95554360D01*
X151011711Y-95438356D01*
X151159356Y-95290711D01*
X151275360Y-95117098D01*
X151355265Y-94924191D01*
X151396000Y-94719401D01*
X151396000Y-94510599D01*
X151355265Y-94305809D01*
X151275360Y-94112902D01*
X151272647Y-94108841D01*
X151279368Y-94098394D01*
X151355547Y-93905064D01*
X151229621Y-93742000D01*
X150937413Y-93742000D01*
X150838098Y-93675640D01*
X150645191Y-93595735D01*
X150440401Y-93555000D01*
X150396000Y-93555000D01*
X150396000Y-93510599D01*
X150355265Y-93305809D01*
X150275360Y-93112902D01*
X150209000Y-93013587D01*
X150209000Y-92722743D01*
X150463000Y-92722743D01*
X150463000Y-93488000D01*
X151229621Y-93488000D01*
X151355547Y-93324936D01*
X151279368Y-93131606D01*
X151166936Y-92956852D01*
X151022571Y-92807391D01*
X150851822Y-92688966D01*
X150661250Y-92606128D01*
X150626062Y-92595460D01*
X150463000Y-92722743D01*
X150209000Y-92722743D01*
X150045938Y-92595460D01*
X150010750Y-92606128D01*
X149843118Y-92678994D01*
X149838098Y-92675640D01*
X149645191Y-92595735D01*
X149440401Y-92555000D01*
X149231599Y-92555000D01*
X149026809Y-92595735D01*
X148836000Y-92674771D01*
X148645191Y-92595735D01*
X148440401Y-92555000D01*
X148231599Y-92555000D01*
X148026809Y-92595735D01*
X147833902Y-92675640D01*
X147660289Y-92791644D01*
X147512644Y-92939289D01*
X147396640Y-93112902D01*
X147316735Y-93305809D01*
X147276000Y-93510599D01*
X147276000Y-93719401D01*
X147316735Y-93924191D01*
X147323862Y-93941397D01*
X147321498Y-93945820D01*
X147285188Y-94065518D01*
X147272928Y-94190000D01*
X128725000Y-94190000D01*
X128725000Y-91154163D01*
X131360000Y-91154163D01*
X131360000Y-91855838D01*
X131374976Y-92007895D01*
X131434160Y-92202993D01*
X131530267Y-92382797D01*
X131659605Y-92540396D01*
X131817204Y-92669734D01*
X131997008Y-92765841D01*
X132192106Y-92825024D01*
X132395000Y-92845007D01*
X132597895Y-92825024D01*
X132792993Y-92765841D01*
X132972797Y-92669734D01*
X133130396Y-92540396D01*
X133259734Y-92382797D01*
X133355841Y-92202992D01*
X133415024Y-92007894D01*
X133430000Y-91855837D01*
X133430000Y-91154162D01*
X133422422Y-91077216D01*
X133536964Y-91000681D01*
X133670681Y-90866964D01*
X133775741Y-90709731D01*
X133848108Y-90535022D01*
X133885000Y-90349552D01*
X133885000Y-90255000D01*
X139010355Y-90255000D01*
X139028890Y-90443193D01*
X139083784Y-90624154D01*
X139172927Y-90790928D01*
X139292893Y-90937107D01*
X139439072Y-91057073D01*
X139605846Y-91146216D01*
X139620349Y-91150616D01*
X139620000Y-91154163D01*
X139620000Y-91855838D01*
X139634976Y-92007895D01*
X139694160Y-92202993D01*
X139790267Y-92382797D01*
X139919605Y-92540396D01*
X140077204Y-92669734D01*
X140257008Y-92765841D01*
X140452106Y-92825024D01*
X140655000Y-92845007D01*
X140857895Y-92825024D01*
X141052993Y-92765841D01*
X141232797Y-92669734D01*
X141390396Y-92540396D01*
X141519734Y-92382797D01*
X141615841Y-92202992D01*
X141675024Y-92007894D01*
X141690000Y-91855837D01*
X141690000Y-91846061D01*
X154667000Y-91846061D01*
X154667000Y-92049939D01*
X154706774Y-92249898D01*
X154784795Y-92438256D01*
X154898063Y-92607774D01*
X155042226Y-92751937D01*
X155211744Y-92865205D01*
X155400102Y-92943226D01*
X155600061Y-92983000D01*
X155803939Y-92983000D01*
X156003898Y-92943226D01*
X156192256Y-92865205D01*
X156361774Y-92751937D01*
X156505937Y-92607774D01*
X156619205Y-92438256D01*
X156697226Y-92249898D01*
X156737000Y-92049939D01*
X156737000Y-91846061D01*
X156697226Y-91646102D01*
X156619205Y-91457744D01*
X156505937Y-91288226D01*
X156361774Y-91144063D01*
X156192256Y-91030795D01*
X156003898Y-90952774D01*
X155803939Y-90913000D01*
X155600061Y-90913000D01*
X155400102Y-90952774D01*
X155211744Y-91030795D01*
X155042226Y-91144063D01*
X154898063Y-91288226D01*
X154784795Y-91457744D01*
X154706774Y-91646102D01*
X154667000Y-91846061D01*
X141690000Y-91846061D01*
X141690000Y-91154162D01*
X141675024Y-91002105D01*
X141615841Y-90807007D01*
X141519734Y-90627203D01*
X141390396Y-90469604D01*
X141232797Y-90340266D01*
X141231325Y-90339479D01*
X141239645Y-90255000D01*
X141221110Y-90066807D01*
X141166216Y-89885846D01*
X141077073Y-89719072D01*
X140957107Y-89572893D01*
X140810928Y-89452927D01*
X140644154Y-89363784D01*
X140463193Y-89308890D01*
X140322162Y-89295000D01*
X139927838Y-89295000D01*
X139786807Y-89308890D01*
X139605846Y-89363784D01*
X139439072Y-89452927D01*
X139292893Y-89572893D01*
X139172927Y-89719072D01*
X139083784Y-89885846D01*
X139028890Y-90066807D01*
X139010355Y-90255000D01*
X133885000Y-90255000D01*
X133885000Y-90160448D01*
X133848108Y-89974978D01*
X133775741Y-89800269D01*
X133670681Y-89643036D01*
X133536964Y-89509319D01*
X133379731Y-89404259D01*
X133205022Y-89331892D01*
X133019552Y-89295000D01*
X132830448Y-89295000D01*
X132644978Y-89331892D01*
X132470269Y-89404259D01*
X132313036Y-89509319D01*
X132179319Y-89643036D01*
X132074259Y-89800269D01*
X132001892Y-89974978D01*
X131965000Y-90160448D01*
X131965000Y-90261267D01*
X131817203Y-90340266D01*
X131659604Y-90469604D01*
X131530266Y-90627203D01*
X131434159Y-90807008D01*
X131374976Y-91002106D01*
X131360000Y-91154163D01*
X128725000Y-91154163D01*
X128725000Y-85885881D01*
X130193724Y-85885881D01*
X130553912Y-86375548D01*
X131217882Y-86735849D01*
X131939385Y-86959694D01*
X132690695Y-87038480D01*
X133442938Y-86969178D01*
X134167208Y-86754452D01*
X134835670Y-86402555D01*
X134876088Y-86375548D01*
X135236276Y-85885881D01*
X165118724Y-85885881D01*
X165478912Y-86375548D01*
X166142882Y-86735849D01*
X166864385Y-86959694D01*
X167615695Y-87038480D01*
X168367938Y-86969178D01*
X169092208Y-86754452D01*
X169760670Y-86402555D01*
X169801088Y-86375548D01*
X170161276Y-85885881D01*
X167640000Y-83364605D01*
X165118724Y-85885881D01*
X135236276Y-85885881D01*
X132715000Y-83364605D01*
X130193724Y-85885881D01*
X128725000Y-85885881D01*
X128725000Y-83160695D01*
X128861520Y-83160695D01*
X128930822Y-83912938D01*
X129145548Y-84637208D01*
X129497445Y-85305670D01*
X129524452Y-85346088D01*
X130014119Y-85706276D01*
X132535395Y-83185000D01*
X132894605Y-83185000D01*
X135415881Y-85706276D01*
X135905548Y-85346088D01*
X136265849Y-84682118D01*
X136489694Y-83960615D01*
X136568480Y-83209305D01*
X136561733Y-83136061D01*
X146465000Y-83136061D01*
X146465000Y-83339939D01*
X146504774Y-83539898D01*
X146582795Y-83728256D01*
X146696063Y-83897774D01*
X146840226Y-84041937D01*
X147009744Y-84155205D01*
X147198102Y-84233226D01*
X147398061Y-84273000D01*
X147601939Y-84273000D01*
X147801898Y-84233226D01*
X147990256Y-84155205D01*
X148159774Y-84041937D01*
X148303937Y-83897774D01*
X148417205Y-83728256D01*
X148495226Y-83539898D01*
X148535000Y-83339939D01*
X148535000Y-83160695D01*
X163786520Y-83160695D01*
X163855822Y-83912938D01*
X164070548Y-84637208D01*
X164422445Y-85305670D01*
X164449452Y-85346088D01*
X164939119Y-85706276D01*
X167460395Y-83185000D01*
X167819605Y-83185000D01*
X170340881Y-85706276D01*
X170830548Y-85346088D01*
X171190849Y-84682118D01*
X171414694Y-83960615D01*
X171493480Y-83209305D01*
X171424178Y-82457062D01*
X171209452Y-81732792D01*
X170857555Y-81064330D01*
X170830548Y-81023912D01*
X170340881Y-80663724D01*
X167819605Y-83185000D01*
X167460395Y-83185000D01*
X164939119Y-80663724D01*
X164449452Y-81023912D01*
X164089151Y-81687882D01*
X163865306Y-82409385D01*
X163786520Y-83160695D01*
X148535000Y-83160695D01*
X148535000Y-83136061D01*
X148495226Y-82936102D01*
X148417205Y-82747744D01*
X148303937Y-82578226D01*
X148159774Y-82434063D01*
X147990256Y-82320795D01*
X147801898Y-82242774D01*
X147601939Y-82203000D01*
X147398061Y-82203000D01*
X147198102Y-82242774D01*
X147009744Y-82320795D01*
X146840226Y-82434063D01*
X146696063Y-82578226D01*
X146582795Y-82747744D01*
X146504774Y-82936102D01*
X146465000Y-83136061D01*
X136561733Y-83136061D01*
X136499178Y-82457062D01*
X136284452Y-81732792D01*
X136259852Y-81686061D01*
X150857000Y-81686061D01*
X150857000Y-81889939D01*
X150896774Y-82089898D01*
X150974795Y-82278256D01*
X151088063Y-82447774D01*
X151232226Y-82591937D01*
X151401744Y-82705205D01*
X151590102Y-82783226D01*
X151790061Y-82823000D01*
X151993939Y-82823000D01*
X152193898Y-82783226D01*
X152382256Y-82705205D01*
X152551774Y-82591937D01*
X152695937Y-82447774D01*
X152809205Y-82278256D01*
X152887226Y-82089898D01*
X152927000Y-81889939D01*
X152927000Y-81686061D01*
X152887226Y-81486102D01*
X152809205Y-81297744D01*
X152695937Y-81128226D01*
X152551774Y-80984063D01*
X152382256Y-80870795D01*
X152193898Y-80792774D01*
X151993939Y-80753000D01*
X151790061Y-80753000D01*
X151590102Y-80792774D01*
X151401744Y-80870795D01*
X151232226Y-80984063D01*
X151088063Y-81128226D01*
X150974795Y-81297744D01*
X150896774Y-81486102D01*
X150857000Y-81686061D01*
X136259852Y-81686061D01*
X135932555Y-81064330D01*
X135905548Y-81023912D01*
X135415881Y-80663724D01*
X132894605Y-83185000D01*
X132535395Y-83185000D01*
X130014119Y-80663724D01*
X129524452Y-81023912D01*
X129164151Y-81687882D01*
X128940306Y-82409385D01*
X128861520Y-83160695D01*
X128725000Y-83160695D01*
X128725000Y-80484119D01*
X130193724Y-80484119D01*
X132715000Y-83005395D01*
X135236276Y-80484119D01*
X134876088Y-79994452D01*
X134716885Y-79908061D01*
X149587000Y-79908061D01*
X149587000Y-80111939D01*
X149626774Y-80311898D01*
X149704795Y-80500256D01*
X149818063Y-80669774D01*
X149962226Y-80813937D01*
X150131744Y-80927205D01*
X150320102Y-81005226D01*
X150520061Y-81045000D01*
X150723939Y-81045000D01*
X150923898Y-81005226D01*
X151112256Y-80927205D01*
X151281774Y-80813937D01*
X151425937Y-80669774D01*
X151539205Y-80500256D01*
X151545889Y-80484119D01*
X165118724Y-80484119D01*
X167640000Y-83005395D01*
X170161276Y-80484119D01*
X169801088Y-79994452D01*
X169137118Y-79634151D01*
X168415615Y-79410306D01*
X167664305Y-79331520D01*
X166912062Y-79400822D01*
X166187792Y-79615548D01*
X165519330Y-79967445D01*
X165478912Y-79994452D01*
X165118724Y-80484119D01*
X151545889Y-80484119D01*
X151617226Y-80311898D01*
X151657000Y-80111939D01*
X151657000Y-79908061D01*
X151617226Y-79708102D01*
X151539205Y-79519744D01*
X151425937Y-79350226D01*
X151281774Y-79206063D01*
X151112256Y-79092795D01*
X150923898Y-79014774D01*
X150723939Y-78975000D01*
X150520061Y-78975000D01*
X150320102Y-79014774D01*
X150131744Y-79092795D01*
X149962226Y-79206063D01*
X149818063Y-79350226D01*
X149704795Y-79519744D01*
X149626774Y-79708102D01*
X149587000Y-79908061D01*
X134716885Y-79908061D01*
X134212118Y-79634151D01*
X133490615Y-79410306D01*
X132739305Y-79331520D01*
X131987062Y-79400822D01*
X131262792Y-79615548D01*
X130594330Y-79967445D01*
X130553912Y-79994452D01*
X130193724Y-80484119D01*
X128725000Y-80484119D01*
X128725000Y-77851000D01*
X153899532Y-77851000D01*
X153772226Y-77936063D01*
G37*
%TD.AperFunction*%
%TD*%
M02*
