M48
; DRILL file {KiCad (5.1.7)-1} date 11/27/21 18:52:46
; FORMAT={-:-/ absolute / inch / decimal}
; #@! TF.CreationDate,2021-11-27T18:52:46+01:00
; #@! TF.GenerationSoftware,Kicad,Pcbnew,(5.1.7)-1
; #@! TF.FileFunction,Plated,1,4,PTH
FMAT,2
INCH
T1C0.0157
T2C0.0197
T3C0.0315
T4C0.1260
%
G90
G05
T1
X5.64Y-2.86
X5.8071Y-3.2771
X5.93Y-3.15
X5.98Y-3.22
X6.08Y-3.1
X6.13Y-3.41
X6.13Y-3.62
X6.15Y-3.1
X6.3624Y-3.4124
T2
X5.1305Y-1.35
X5.1582Y-1.2832
X5.1582Y-1.4168
X5.225Y-1.2555
X5.225Y-1.4445
X5.2918Y-1.2832
X5.2918Y-1.4168
X5.3195Y-1.35
X5.62Y-1.2856
X5.62Y-1.325
X5.6594Y-1.2856
X5.6594Y-1.325
X5.6987Y-1.2856
X5.6987Y-1.325
X5.7381Y-1.2856
X5.7381Y-1.325
X5.7775Y-1.2856
X5.7775Y-1.325
X5.8169Y-1.2856
X5.8169Y-1.325
X5.8562Y-1.2856
X5.8562Y-1.325
X5.8956Y-1.2856
X5.8956Y-1.325
X5.935Y-1.2856
X5.935Y-1.325
X5.9743Y-1.2856
X5.9743Y-1.325
X6.0137Y-1.2856
X6.0137Y-1.325
X6.0531Y-1.2856
X6.0531Y-1.325
X6.0924Y-1.2856
X6.0924Y-1.325
X6.1318Y-1.2856
X6.1318Y-1.325
X6.1712Y-1.2856
X6.1712Y-1.325
X6.2106Y-1.2856
X6.2106Y-1.325
X6.5055Y-1.35
X6.5332Y-1.2832
X6.5332Y-1.4168
X6.6Y-1.2555
X6.6Y-1.4445
X6.6668Y-1.2832
X6.6668Y-1.4168
X6.6945Y-1.35
X5.84Y-3.6856
X5.84Y-3.725
X5.8794Y-3.6856
X5.8794Y-3.725
X5.9187Y-3.6856
X5.9187Y-3.725
X6.5055Y-3.275
X6.5332Y-3.2082
X6.5332Y-3.3418
X6.6Y-3.1805
X6.6Y-3.3695
X6.6668Y-3.2082
X6.6668Y-3.3418
X6.6945Y-3.275
X5.1305Y-3.275
X5.1582Y-3.2082
X5.1582Y-3.3418
X5.225Y-3.1805
X5.225Y-3.3695
X5.2918Y-3.2082
X5.2918Y-3.3418
X5.3195Y-3.275
T3
X5.5569Y-2.2311
X5.5569Y-2.2902
X5.5569Y-2.3492
X5.6569Y-2.2508
X5.6569Y-2.3098
X5.6569Y-2.3689
X5.7569Y-2.2705
X5.7569Y-2.3295
X5.8455Y-2.0425
X5.8455Y-2.6575
X5.8652Y-1.9425
X5.8652Y-2.5575
X5.8848Y-2.1425
X5.8848Y-2.4575
X5.9045Y-2.0425
X5.9045Y-2.6575
X5.9242Y-1.9425
X5.9242Y-2.5575
X5.9439Y-2.1425
X5.9439Y-2.4575
X5.9636Y-2.0425
X5.9636Y-2.6575
X5.9833Y-1.9425
X5.9833Y-2.5575
X6.0719Y-2.2705
X6.0719Y-2.3295
X6.1719Y-2.2311
X6.1719Y-2.2902
X6.1719Y-2.3492
X6.2719Y-2.2508
X6.2719Y-2.3098
X6.2719Y-2.3689
T4
X5.225Y-1.35
X6.6Y-1.35
X6.6Y-3.275
X5.225Y-3.275
T2
G00X5.1982Y-3.825
M15
G01X5.1982Y-3.8486
M16
G05
G00X5.2124Y-3.5907
M15
G01X5.2124Y-3.6144
M16
G05
G00X5.5376Y-3.5907
M15
G01X5.5376Y-3.6144
M16
G05
G00X5.5518Y-3.825
M15
G01X5.5518Y-3.8486
M16
G05
T0
M30
