%TF.GenerationSoftware,KiCad,Pcbnew,(5.1.7)-1*%
%TF.CreationDate,2021-11-27T18:52:12+01:00*%
%TF.ProjectId,SFP-32 Clampshell,5346502d-3332-4204-936c-616d70736865,rev?*%
%TF.SameCoordinates,Original*%
%TF.FileFunction,Copper,L1,Top*%
%TF.FilePolarity,Positive*%
%FSLAX46Y46*%
G04 Gerber Fmt 4.6, Leading zero omitted, Abs format (unit mm)*
G04 Created by KiCad (PCBNEW (5.1.7)-1) date 2021-11-27 18:52:12*
%MOMM*%
%LPD*%
G01*
G04 APERTURE LIST*
%TA.AperFunction,ComponentPad*%
%ADD10C,0.800000*%
%TD*%
%TA.AperFunction,ComponentPad*%
%ADD11C,6.400000*%
%TD*%
%TA.AperFunction,SMDPad,CuDef*%
%ADD12R,1.400000X1.200000*%
%TD*%
%TA.AperFunction,ComponentPad*%
%ADD13O,0.850000X0.850000*%
%TD*%
%TA.AperFunction,ComponentPad*%
%ADD14R,0.850000X0.850000*%
%TD*%
%TA.AperFunction,SMDPad,CuDef*%
%ADD15R,0.300000X0.700000*%
%TD*%
%TA.AperFunction,ComponentPad*%
%ADD16O,0.800000X1.400000*%
%TD*%
%TA.AperFunction,SMDPad,CuDef*%
%ADD17R,1.300000X1.400000*%
%TD*%
%TA.AperFunction,ComponentPad*%
%ADD18C,1.400000*%
%TD*%
%TA.AperFunction,ViaPad*%
%ADD19C,0.800000*%
%TD*%
%TA.AperFunction,Conductor*%
%ADD20C,0.250000*%
%TD*%
G04 APERTURE END LIST*
D10*
%TO.P,M3,1*%
%TO.N,5*%
X134412056Y-81487944D03*
X132715000Y-80785000D03*
X131017944Y-81487944D03*
X130315000Y-83185000D03*
X131017944Y-84882056D03*
X132715000Y-85585000D03*
X134412056Y-84882056D03*
X135115000Y-83185000D03*
D11*
X132715000Y-83185000D03*
%TD*%
%TO.P,M3,1*%
%TO.N,5*%
X167640000Y-83185000D03*
D10*
X170040000Y-83185000D03*
X169337056Y-84882056D03*
X167640000Y-85585000D03*
X165942944Y-84882056D03*
X165240000Y-83185000D03*
X165942944Y-81487944D03*
X167640000Y-80785000D03*
X169337056Y-81487944D03*
%TD*%
D11*
%TO.P,M3,1*%
%TO.N,5*%
X132715000Y-34290000D03*
D10*
X135115000Y-34290000D03*
X134412056Y-35987056D03*
X132715000Y-36690000D03*
X131017944Y-35987056D03*
X130315000Y-34290000D03*
X131017944Y-32592944D03*
X132715000Y-31890000D03*
X134412056Y-32592944D03*
%TD*%
%TO.P,M3,1*%
%TO.N,5*%
X169337056Y-32592944D03*
X167640000Y-31890000D03*
X165942944Y-32592944D03*
X165240000Y-34290000D03*
X165942944Y-35987056D03*
X167640000Y-36690000D03*
X169337056Y-35987056D03*
X170040000Y-34290000D03*
D11*
X167640000Y-34290000D03*
%TD*%
D12*
%TO.P,Y1,4*%
%TO.N,N/C*%
X154475000Y-82335000D03*
%TO.P,Y1,3*%
X156675000Y-82335000D03*
%TO.P,Y1,2*%
%TO.N,8*%
X156675000Y-84035000D03*
%TO.P,Y1,1*%
%TO.N,7*%
X154475000Y-84035000D03*
%TD*%
%TO.P,R1,2*%
%TO.N,17*%
%TA.AperFunction,SMDPad,CuDef*%
G36*
G01*
X159200001Y-91675000D02*
X158299999Y-91675000D01*
G75*
G02*
X158050000Y-91425001I0J249999D01*
G01*
X158050000Y-90899999D01*
G75*
G02*
X158299999Y-90650000I249999J0D01*
G01*
X159200001Y-90650000D01*
G75*
G02*
X159450000Y-90899999I0J-249999D01*
G01*
X159450000Y-91425001D01*
G75*
G02*
X159200001Y-91675000I-249999J0D01*
G01*
G37*
%TD.AperFunction*%
%TO.P,R1,1*%
%TO.N,Net-(D2-Pad2)*%
%TA.AperFunction,SMDPad,CuDef*%
G36*
G01*
X159200001Y-93500000D02*
X158299999Y-93500000D01*
G75*
G02*
X158050000Y-93250001I0J249999D01*
G01*
X158050000Y-92724999D01*
G75*
G02*
X158299999Y-92475000I249999J0D01*
G01*
X159200001Y-92475000D01*
G75*
G02*
X159450000Y-92724999I0J-249999D01*
G01*
X159450000Y-93250001D01*
G75*
G02*
X159200001Y-93500000I-249999J0D01*
G01*
G37*
%TD.AperFunction*%
%TD*%
D13*
%TO.P,J3,6*%
%TO.N,5*%
X150336000Y-93615000D03*
%TO.P,J3,5*%
%TO.N,29*%
X150336000Y-94615000D03*
%TO.P,J3,4*%
%TO.N,15*%
X149336000Y-93615000D03*
%TO.P,J3,3*%
%TO.N,17*%
X149336000Y-94615000D03*
%TO.P,J3,2*%
%TO.N,18*%
X148336000Y-93615000D03*
D14*
%TO.P,J3,1*%
%TO.N,16*%
X148336000Y-94615000D03*
%TD*%
D15*
%TO.P,J2,B12*%
%TO.N,5*%
X133525000Y-91295000D03*
%TO.P,J2,B11*%
%TO.N,N/C*%
X134025000Y-91295000D03*
%TO.P,J2,B10*%
X134525000Y-91295000D03*
%TO.P,J2,B9*%
%TO.N,Net-(F1-Pad2)*%
X135025000Y-91295000D03*
%TO.P,J2,B8*%
%TO.N,Net-(J2-PadB8)*%
X135525000Y-91295000D03*
%TO.P,J2,B7*%
%TO.N,Net-(J2-PadB7)*%
X136025000Y-91295000D03*
%TO.P,J2,B6*%
%TO.N,Net-(J2-PadB6)*%
X136525000Y-91295000D03*
%TO.P,J2,B5*%
%TO.N,Net-(J2-PadB5)*%
X137025000Y-91295000D03*
%TO.P,J2,B4*%
%TO.N,Net-(F1-Pad2)*%
X137525000Y-91295000D03*
%TO.P,J2,B3*%
%TO.N,N/C*%
X138025000Y-91295000D03*
%TO.P,J2,B2*%
X138525000Y-91295000D03*
D16*
%TO.P,J2,S1*%
X132035000Y-97455000D03*
X141015000Y-97455000D03*
X140655000Y-91505000D03*
D15*
%TO.P,J2,B1*%
%TO.N,5*%
X139025000Y-91295000D03*
%TO.P,J2,A11*%
%TO.N,N/C*%
X138775000Y-89595000D03*
%TO.P,J2,A8*%
%TO.N,Net-(J2-PadA8)*%
X137275000Y-89595000D03*
%TO.P,J2,A9*%
%TO.N,Net-(F1-Pad2)*%
X137775000Y-89595000D03*
%TO.P,J2,A10*%
%TO.N,N/C*%
X138275000Y-89595000D03*
%TO.P,J2,A12*%
%TO.N,5*%
X139275000Y-89595000D03*
%TO.P,J2,A7*%
%TO.N,Net-(J2-PadA7)*%
X136775000Y-89595000D03*
%TO.P,J2,A6*%
%TO.N,Net-(J2-PadA6)*%
X136275000Y-89595000D03*
%TO.P,J2,A5*%
%TO.N,Net-(J2-PadA5)*%
X135775000Y-89595000D03*
%TO.P,J2,A4*%
%TO.N,Net-(F1-Pad2)*%
X135275000Y-89595000D03*
%TO.P,J2,A3*%
%TO.N,N/C*%
X134775000Y-89595000D03*
%TO.P,J2,A2*%
X134275000Y-89595000D03*
%TO.P,J2,A1*%
%TO.N,5*%
X133775000Y-89595000D03*
D16*
%TO.P,J2,S1*%
%TO.N,N/C*%
X132395000Y-91505000D03*
%TD*%
%TO.P,F1,2*%
%TO.N,Net-(F1-Pad2)*%
%TA.AperFunction,SMDPad,CuDef*%
G36*
G01*
X141255000Y-85468750D02*
X141255000Y-85981250D01*
G75*
G02*
X141036250Y-86200000I-218750J0D01*
G01*
X140598750Y-86200000D01*
G75*
G02*
X140380000Y-85981250I0J218750D01*
G01*
X140380000Y-85468750D01*
G75*
G02*
X140598750Y-85250000I218750J0D01*
G01*
X141036250Y-85250000D01*
G75*
G02*
X141255000Y-85468750I0J-218750D01*
G01*
G37*
%TD.AperFunction*%
%TO.P,F1,1*%
%TO.N,Net-(D1-Pad2)*%
%TA.AperFunction,SMDPad,CuDef*%
G36*
G01*
X142830000Y-85468750D02*
X142830000Y-85981250D01*
G75*
G02*
X142611250Y-86200000I-218750J0D01*
G01*
X142173750Y-86200000D01*
G75*
G02*
X141955000Y-85981250I0J218750D01*
G01*
X141955000Y-85468750D01*
G75*
G02*
X142173750Y-85250000I218750J0D01*
G01*
X142611250Y-85250000D01*
G75*
G02*
X142830000Y-85468750I0J-218750D01*
G01*
G37*
%TD.AperFunction*%
%TD*%
%TO.P,D2,2*%
%TO.N,Net-(D2-Pad2)*%
%TA.AperFunction,SMDPad,CuDef*%
G36*
G01*
X159206250Y-95435000D02*
X158293750Y-95435000D01*
G75*
G02*
X158050000Y-95191250I0J243750D01*
G01*
X158050000Y-94703750D01*
G75*
G02*
X158293750Y-94460000I243750J0D01*
G01*
X159206250Y-94460000D01*
G75*
G02*
X159450000Y-94703750I0J-243750D01*
G01*
X159450000Y-95191250D01*
G75*
G02*
X159206250Y-95435000I-243750J0D01*
G01*
G37*
%TD.AperFunction*%
%TO.P,D2,1*%
%TO.N,18*%
%TA.AperFunction,SMDPad,CuDef*%
G36*
G01*
X159206250Y-97310000D02*
X158293750Y-97310000D01*
G75*
G02*
X158050000Y-97066250I0J243750D01*
G01*
X158050000Y-96578750D01*
G75*
G02*
X158293750Y-96335000I243750J0D01*
G01*
X159206250Y-96335000D01*
G75*
G02*
X159450000Y-96578750I0J-243750D01*
G01*
X159450000Y-97066250D01*
G75*
G02*
X159206250Y-97310000I-243750J0D01*
G01*
G37*
%TD.AperFunction*%
%TD*%
D17*
%TO.P,D1,2*%
%TO.N,Net-(D1-Pad2)*%
X144600000Y-85725000D03*
%TO.P,D1,1*%
%TO.N,18*%
X147500000Y-85725000D03*
%TD*%
%TO.P,C6,2*%
%TO.N,5*%
%TA.AperFunction,SMDPad,CuDef*%
G36*
G01*
X156645000Y-85555000D02*
X156645000Y-85895000D01*
G75*
G02*
X156505000Y-86035000I-140000J0D01*
G01*
X156225000Y-86035000D01*
G75*
G02*
X156085000Y-85895000I0J140000D01*
G01*
X156085000Y-85555000D01*
G75*
G02*
X156225000Y-85415000I140000J0D01*
G01*
X156505000Y-85415000D01*
G75*
G02*
X156645000Y-85555000I0J-140000D01*
G01*
G37*
%TD.AperFunction*%
%TO.P,C6,1*%
%TO.N,8*%
%TA.AperFunction,SMDPad,CuDef*%
G36*
G01*
X157605000Y-85555000D02*
X157605000Y-85895000D01*
G75*
G02*
X157465000Y-86035000I-140000J0D01*
G01*
X157185000Y-86035000D01*
G75*
G02*
X157045000Y-85895000I0J140000D01*
G01*
X157045000Y-85555000D01*
G75*
G02*
X157185000Y-85415000I140000J0D01*
G01*
X157465000Y-85415000D01*
G75*
G02*
X157605000Y-85555000I0J-140000D01*
G01*
G37*
%TD.AperFunction*%
%TD*%
%TO.P,C5,2*%
%TO.N,7*%
%TA.AperFunction,SMDPad,CuDef*%
G36*
G01*
X154505000Y-85895000D02*
X154505000Y-85555000D01*
G75*
G02*
X154645000Y-85415000I140000J0D01*
G01*
X154925000Y-85415000D01*
G75*
G02*
X155065000Y-85555000I0J-140000D01*
G01*
X155065000Y-85895000D01*
G75*
G02*
X154925000Y-86035000I-140000J0D01*
G01*
X154645000Y-86035000D01*
G75*
G02*
X154505000Y-85895000I0J140000D01*
G01*
G37*
%TD.AperFunction*%
%TO.P,C5,1*%
%TO.N,5*%
%TA.AperFunction,SMDPad,CuDef*%
G36*
G01*
X153545000Y-85895000D02*
X153545000Y-85555000D01*
G75*
G02*
X153685000Y-85415000I140000J0D01*
G01*
X153965000Y-85415000D01*
G75*
G02*
X154105000Y-85555000I0J-140000D01*
G01*
X154105000Y-85895000D01*
G75*
G02*
X153965000Y-86035000I-140000J0D01*
G01*
X153685000Y-86035000D01*
G75*
G02*
X153545000Y-85895000I0J140000D01*
G01*
G37*
%TD.AperFunction*%
%TD*%
%TO.P,C4,2*%
%TO.N,5*%
%TA.AperFunction,SMDPad,CuDef*%
G36*
G01*
X151965000Y-85895000D02*
X151965000Y-85555000D01*
G75*
G02*
X152105000Y-85415000I140000J0D01*
G01*
X152385000Y-85415000D01*
G75*
G02*
X152525000Y-85555000I0J-140000D01*
G01*
X152525000Y-85895000D01*
G75*
G02*
X152385000Y-86035000I-140000J0D01*
G01*
X152105000Y-86035000D01*
G75*
G02*
X151965000Y-85895000I0J140000D01*
G01*
G37*
%TD.AperFunction*%
%TO.P,C4,1*%
%TO.N,20*%
%TA.AperFunction,SMDPad,CuDef*%
G36*
G01*
X151005000Y-85895000D02*
X151005000Y-85555000D01*
G75*
G02*
X151145000Y-85415000I140000J0D01*
G01*
X151425000Y-85415000D01*
G75*
G02*
X151565000Y-85555000I0J-140000D01*
G01*
X151565000Y-85895000D01*
G75*
G02*
X151425000Y-86035000I-140000J0D01*
G01*
X151145000Y-86035000D01*
G75*
G02*
X151005000Y-85895000I0J140000D01*
G01*
G37*
%TD.AperFunction*%
%TD*%
%TO.P,C3,2*%
%TO.N,5*%
%TA.AperFunction,SMDPad,CuDef*%
G36*
G01*
X167495000Y-93895000D02*
X167495000Y-92795000D01*
G75*
G02*
X167745000Y-92545000I250000J0D01*
G01*
X171170000Y-92545000D01*
G75*
G02*
X171420000Y-92795000I0J-250000D01*
G01*
X171420000Y-93895000D01*
G75*
G02*
X171170000Y-94145000I-250000J0D01*
G01*
X167745000Y-94145000D01*
G75*
G02*
X167495000Y-93895000I0J250000D01*
G01*
G37*
%TD.AperFunction*%
%TO.P,C3,1*%
%TO.N,18*%
%TA.AperFunction,SMDPad,CuDef*%
G36*
G01*
X161320000Y-93895000D02*
X161320000Y-92795000D01*
G75*
G02*
X161570000Y-92545000I250000J0D01*
G01*
X164995000Y-92545000D01*
G75*
G02*
X165245000Y-92795000I0J-250000D01*
G01*
X165245000Y-93895000D01*
G75*
G02*
X164995000Y-94145000I-250000J0D01*
G01*
X161570000Y-94145000D01*
G75*
G02*
X161320000Y-93895000I0J250000D01*
G01*
G37*
%TD.AperFunction*%
%TD*%
%TO.P,C2,2*%
%TO.N,5*%
%TA.AperFunction,SMDPad,CuDef*%
G36*
G01*
X161105000Y-83025000D02*
X161105000Y-82075000D01*
G75*
G02*
X161355000Y-81825000I250000J0D01*
G01*
X161855000Y-81825000D01*
G75*
G02*
X162105000Y-82075000I0J-250000D01*
G01*
X162105000Y-83025000D01*
G75*
G02*
X161855000Y-83275000I-250000J0D01*
G01*
X161355000Y-83275000D01*
G75*
G02*
X161105000Y-83025000I0J250000D01*
G01*
G37*
%TD.AperFunction*%
%TO.P,C2,1*%
%TO.N,18*%
%TA.AperFunction,SMDPad,CuDef*%
G36*
G01*
X159205000Y-83025000D02*
X159205000Y-82075000D01*
G75*
G02*
X159455000Y-81825000I250000J0D01*
G01*
X159955000Y-81825000D01*
G75*
G02*
X160205000Y-82075000I0J-250000D01*
G01*
X160205000Y-83025000D01*
G75*
G02*
X159955000Y-83275000I-250000J0D01*
G01*
X159455000Y-83275000D01*
G75*
G02*
X159205000Y-83025000I0J250000D01*
G01*
G37*
%TD.AperFunction*%
%TD*%
%TO.P,C1,2*%
%TO.N,5*%
%TA.AperFunction,SMDPad,CuDef*%
G36*
G01*
X161105000Y-85565000D02*
X161105000Y-84615000D01*
G75*
G02*
X161355000Y-84365000I250000J0D01*
G01*
X161855000Y-84365000D01*
G75*
G02*
X162105000Y-84615000I0J-250000D01*
G01*
X162105000Y-85565000D01*
G75*
G02*
X161855000Y-85815000I-250000J0D01*
G01*
X161355000Y-85815000D01*
G75*
G02*
X161105000Y-85565000I0J250000D01*
G01*
G37*
%TD.AperFunction*%
%TO.P,C1,1*%
%TO.N,18*%
%TA.AperFunction,SMDPad,CuDef*%
G36*
G01*
X159205000Y-85565000D02*
X159205000Y-84615000D01*
G75*
G02*
X159455000Y-84365000I250000J0D01*
G01*
X159955000Y-84365000D01*
G75*
G02*
X160205000Y-84615000I0J-250000D01*
G01*
X160205000Y-85565000D01*
G75*
G02*
X159955000Y-85815000I-250000J0D01*
G01*
X159455000Y-85815000D01*
G75*
G02*
X159205000Y-85565000I0J250000D01*
G01*
G37*
%TD.AperFunction*%
%TD*%
D18*
%TO.P,U1,32*%
%TO.N,32*%
X143684999Y-60170000D03*
%TO.P,U1,31*%
%TO.N,31*%
X141144999Y-59670000D03*
%TO.P,U1,30*%
%TO.N,30*%
X146224999Y-59170000D03*
%TO.P,U1,29*%
%TO.N,29*%
X143684999Y-58670000D03*
%TO.P,U1,28*%
%TO.N,28*%
X141144999Y-58170000D03*
%TO.P,U1,27*%
%TO.N,27*%
X146224999Y-57670000D03*
%TO.P,U1,26*%
%TO.N,26*%
X143684999Y-57170000D03*
%TO.P,U1,25*%
%TO.N,25*%
X141144999Y-56670000D03*
%TO.P,U1,24*%
%TO.N,24*%
X148474999Y-51880000D03*
%TO.P,U1,23*%
%TO.N,23*%
X148974999Y-49340000D03*
%TO.P,U1,22*%
%TO.N,22*%
X149474999Y-54420000D03*
%TO.P,U1,21*%
%TO.N,21*%
X149974999Y-51880000D03*
%TO.P,U1,20*%
%TO.N,20*%
X150474999Y-49340000D03*
%TO.P,U1,19*%
%TO.N,19*%
X150974999Y-54420000D03*
%TO.P,U1,18*%
%TO.N,18*%
X151474999Y-51880000D03*
%TO.P,U1,17*%
%TO.N,17*%
X151974999Y-49340000D03*
%TO.P,U1,16*%
%TO.N,16*%
X156764999Y-56670000D03*
%TO.P,U1,15*%
%TO.N,15*%
X159304999Y-57170000D03*
%TO.P,U1,14*%
%TO.N,14*%
X154224999Y-57670000D03*
%TO.P,U1,13*%
%TO.N,13*%
X156764999Y-58170000D03*
%TO.P,U1,12*%
%TO.N,12*%
X159304999Y-58670000D03*
%TO.P,U1,11*%
%TO.N,11*%
X154224999Y-59170000D03*
%TO.P,U1,10*%
%TO.N,10*%
X156764999Y-59670000D03*
%TO.P,U1,9*%
%TO.N,9*%
X159304999Y-60170000D03*
%TO.P,U1,8*%
%TO.N,8*%
X151974999Y-64960000D03*
%TO.P,U1,7*%
%TO.N,7*%
X151474999Y-67500000D03*
%TO.P,U1,6*%
%TO.N,6*%
X150974999Y-62420000D03*
%TO.P,U1,5*%
%TO.N,5*%
X150474999Y-64960000D03*
%TO.P,U1,4*%
%TO.N,18*%
X149974999Y-67500000D03*
%TO.P,U1,3*%
%TO.N,3*%
X149474999Y-62420000D03*
%TO.P,U1,2*%
%TO.N,2*%
X148974999Y-64960000D03*
%TO.P,U1,1*%
%TO.N,1*%
X148474999Y-67500000D03*
%TD*%
D13*
%TO.P,J1,32*%
%TO.N,16*%
X157748000Y-32655000D03*
%TO.P,J1,31*%
%TO.N,17*%
X157748000Y-33655000D03*
%TO.P,J1,30*%
%TO.N,15*%
X156748000Y-32655000D03*
%TO.P,J1,29*%
%TO.N,18*%
X156748000Y-33655000D03*
%TO.P,J1,28*%
%TO.N,14*%
X155748000Y-32655000D03*
%TO.P,J1,27*%
%TO.N,19*%
X155748000Y-33655000D03*
%TO.P,J1,26*%
%TO.N,13*%
X154748000Y-32655000D03*
%TO.P,J1,25*%
%TO.N,20*%
X154748000Y-33655000D03*
%TO.P,J1,24*%
%TO.N,12*%
X153748000Y-32655000D03*
%TO.P,J1,23*%
%TO.N,21*%
X153748000Y-33655000D03*
%TO.P,J1,22*%
%TO.N,11*%
X152748000Y-32655000D03*
%TO.P,J1,21*%
%TO.N,22*%
X152748000Y-33655000D03*
%TO.P,J1,20*%
%TO.N,10*%
X151748000Y-32655000D03*
%TO.P,J1,19*%
%TO.N,23*%
X151748000Y-33655000D03*
%TO.P,J1,18*%
%TO.N,9*%
X150748000Y-32655000D03*
%TO.P,J1,17*%
%TO.N,24*%
X150748000Y-33655000D03*
%TO.P,J1,16*%
%TO.N,8*%
X149748000Y-32655000D03*
%TO.P,J1,15*%
%TO.N,25*%
X149748000Y-33655000D03*
%TO.P,J1,14*%
%TO.N,7*%
X148748000Y-32655000D03*
%TO.P,J1,13*%
%TO.N,26*%
X148748000Y-33655000D03*
%TO.P,J1,12*%
%TO.N,6*%
X147748000Y-32655000D03*
%TO.P,J1,11*%
%TO.N,27*%
X147748000Y-33655000D03*
%TO.P,J1,10*%
%TO.N,5*%
X146748000Y-32655000D03*
%TO.P,J1,9*%
%TO.N,28*%
X146748000Y-33655000D03*
%TO.P,J1,8*%
%TO.N,18*%
X145748000Y-32655000D03*
%TO.P,J1,7*%
%TO.N,29*%
X145748000Y-33655000D03*
%TO.P,J1,6*%
%TO.N,3*%
X144748000Y-32655000D03*
%TO.P,J1,5*%
%TO.N,30*%
X144748000Y-33655000D03*
%TO.P,J1,4*%
%TO.N,2*%
X143748000Y-32655000D03*
%TO.P,J1,3*%
%TO.N,31*%
X143748000Y-33655000D03*
%TO.P,J1,2*%
%TO.N,1*%
X142748000Y-32655000D03*
D14*
%TO.P,J1,1*%
%TO.N,32*%
X142748000Y-33655000D03*
%TD*%
D19*
%TO.N,20*%
X151892000Y-81788000D03*
%TO.N,18*%
X143256000Y-72644000D03*
X147500000Y-83238000D03*
X150622000Y-80010000D03*
%TO.N,17*%
X155702000Y-91948000D03*
%TO.N,8*%
X156210000Y-78740000D03*
%TO.N,7*%
X154432000Y-78740000D03*
%TO.N,5*%
X161605000Y-86675000D03*
X155702000Y-86614000D03*
%TD*%
D20*
%TO.N,32*%
X143684999Y-60170000D02*
X142894999Y-60960000D01*
X142894999Y-60960000D02*
X139700000Y-60960000D01*
X139700000Y-60960000D02*
X135382000Y-56642000D01*
X135382000Y-56642000D02*
X135382000Y-43942000D01*
X142748000Y-36576000D02*
X142748000Y-33655000D01*
X135382000Y-43942000D02*
X142748000Y-36576000D01*
%TO.N,31*%
X141144999Y-59670000D02*
X139934000Y-59670000D01*
X139934000Y-59670000D02*
X136398000Y-56134000D01*
X136398000Y-56134000D02*
X136398000Y-44958000D01*
X143748000Y-37608000D02*
X143748000Y-33655000D01*
X136398000Y-44958000D02*
X143748000Y-37608000D01*
%TO.N,28*%
X141144999Y-58170000D02*
X139446000Y-56471001D01*
X139446000Y-56471001D02*
X139446000Y-52578000D01*
X139446000Y-52578000D02*
X145288000Y-46736000D01*
X145288000Y-46736000D02*
X145288000Y-38354000D01*
X146748000Y-36894000D02*
X146748000Y-33655000D01*
X145288000Y-38354000D02*
X146748000Y-36894000D01*
%TO.N,27*%
X146224999Y-57670000D02*
X146224999Y-39957001D01*
X147748000Y-38434000D02*
X147748000Y-33655000D01*
X146224999Y-39957001D02*
X147748000Y-38434000D01*
%TO.N,24*%
X148474999Y-51880000D02*
X147066000Y-50471001D01*
X147066000Y-50471001D02*
X147066000Y-41402000D01*
X150748000Y-37720000D02*
X150748000Y-33655000D01*
X147066000Y-41402000D02*
X150748000Y-37720000D01*
%TO.N,23*%
X148974999Y-49340000D02*
X148974999Y-41779001D01*
X151748000Y-39006000D02*
X151748000Y-33655000D01*
X148974999Y-41779001D02*
X151748000Y-39006000D01*
%TO.N,20*%
X150474999Y-49340000D02*
X150474999Y-43073001D01*
X154748000Y-38800000D02*
X154748000Y-33655000D01*
X150474999Y-43073001D02*
X154748000Y-38800000D01*
X151285000Y-85725000D02*
X151285000Y-83919000D01*
X151892000Y-83312000D02*
X151892000Y-81788000D01*
X151285000Y-83919000D02*
X151892000Y-83312000D01*
%TO.N,18*%
X144830999Y-72644000D02*
X143256000Y-72644000D01*
X137160000Y-72644000D02*
X132842000Y-68326000D01*
X132842000Y-68326000D02*
X132842000Y-42926000D01*
X132842000Y-42926000D02*
X139954000Y-35814000D01*
X139954000Y-35814000D02*
X139954000Y-33274000D01*
X139954000Y-33274000D02*
X141986000Y-31242000D01*
X145748000Y-32053960D02*
X145748000Y-32655000D01*
X144936040Y-31242000D02*
X145748000Y-32053960D01*
X141986000Y-31242000D02*
X144936040Y-31242000D01*
X152908000Y-53313001D02*
X151474999Y-51880000D01*
X152908000Y-55626000D02*
X152908000Y-53313001D01*
X147828000Y-60706000D02*
X152908000Y-55626000D01*
X147828000Y-65335999D02*
X147828000Y-60706000D01*
X149500000Y-67458000D02*
X149500000Y-67007999D01*
X149542000Y-67500000D02*
X149500000Y-67458000D01*
X149500000Y-67007999D02*
X147828000Y-65335999D01*
X149974999Y-67500000D02*
X149542000Y-67500000D01*
X147500000Y-85725000D02*
X147500000Y-91620000D01*
X148336000Y-92456000D02*
X148336000Y-93615000D01*
X147500000Y-91620000D02*
X148336000Y-92456000D01*
X149974999Y-67500000D02*
X144830999Y-72644000D01*
X143256000Y-72644000D02*
X137160000Y-72644000D01*
X147500000Y-85725000D02*
X147500000Y-83238000D01*
X147500000Y-83238000D02*
X147500000Y-83238000D01*
X159805000Y-96822500D02*
X158750000Y-96822500D01*
X163282500Y-93345000D02*
X159805000Y-96822500D01*
X159705000Y-82550000D02*
X159705000Y-85090000D01*
X159705000Y-85090000D02*
X159705000Y-86553000D01*
X163282500Y-90130500D02*
X163282500Y-93345000D01*
X159705000Y-86553000D02*
X163282500Y-90130500D01*
X159705000Y-82550000D02*
X159705000Y-81473000D01*
X159705000Y-81473000D02*
X158242000Y-80010000D01*
X150622000Y-80010000D02*
X150622000Y-78232000D01*
X150622000Y-78232000D02*
X152654000Y-76200000D01*
X152654000Y-76200000D02*
X156718000Y-76200000D01*
X158242000Y-77724000D02*
X158242000Y-80010000D01*
X156718000Y-76200000D02*
X158242000Y-77724000D01*
%TO.N,17*%
X151974999Y-49340000D02*
X151974999Y-44621001D01*
X157748000Y-38848000D02*
X157748000Y-33655000D01*
X151974999Y-44621001D02*
X157748000Y-38848000D01*
X156487500Y-91162500D02*
X155702000Y-91948000D01*
X158750000Y-91162500D02*
X156487500Y-91162500D01*
%TO.N,15*%
X149336000Y-93615000D02*
X149336000Y-74184000D01*
X149336000Y-74184000D02*
X161290000Y-62230000D01*
X161290000Y-59155001D02*
X159304999Y-57170000D01*
X161290000Y-62230000D02*
X161290000Y-59155001D01*
%TO.N,14*%
X154224999Y-57670000D02*
X154224999Y-45419001D01*
X154224999Y-45419001D02*
X159766000Y-39878000D01*
X159766000Y-39878000D02*
X159766000Y-32258000D01*
X159766000Y-32258000D02*
X158750000Y-31242000D01*
X155748000Y-32053960D02*
X155748000Y-32655000D01*
X156559960Y-31242000D02*
X155748000Y-32053960D01*
X158750000Y-31242000D02*
X156559960Y-31242000D01*
%TO.N,13*%
X156764999Y-58170000D02*
X155194000Y-56599001D01*
X155194000Y-56599001D02*
X155194000Y-46228000D01*
X155194000Y-46228000D02*
X160782000Y-40640000D01*
X160782000Y-40640000D02*
X160782000Y-31750000D01*
X160782000Y-31750000D02*
X159512000Y-30480000D01*
X154748000Y-32053960D02*
X154748000Y-32655000D01*
X156321960Y-30480000D02*
X154748000Y-32053960D01*
X159512000Y-30480000D02*
X156321960Y-30480000D01*
%TO.N,8*%
X156675000Y-84035000D02*
X156675000Y-84793000D01*
X157325000Y-85443000D02*
X157325000Y-85725000D01*
X156675000Y-84793000D02*
X157325000Y-85443000D01*
X156675000Y-84035000D02*
X157011000Y-84035000D01*
X157011000Y-84035000D02*
X158242000Y-82804000D01*
X158242000Y-82804000D02*
X158242000Y-81280000D01*
X158242000Y-81280000D02*
X156210000Y-79248000D01*
X156210000Y-79248000D02*
X156210000Y-78740000D01*
X156210000Y-78740000D02*
X156210000Y-78740000D01*
%TO.N,7*%
X154785000Y-85725000D02*
X154785000Y-85443000D01*
X154475000Y-85133000D02*
X154475000Y-84035000D01*
X154785000Y-85443000D02*
X154475000Y-85133000D01*
X153525000Y-84035000D02*
X152908000Y-83418000D01*
X154475000Y-84035000D02*
X153525000Y-84035000D01*
X152908000Y-83418000D02*
X152908000Y-80772000D01*
X152908000Y-80772000D02*
X154432000Y-79248000D01*
X154432000Y-79248000D02*
X154432000Y-78740000D01*
X154432000Y-78740000D02*
X154432000Y-78740000D01*
%TO.N,5*%
X136906000Y-73914000D02*
X131826000Y-68834000D01*
X131826000Y-68834000D02*
X131826000Y-42164000D01*
X131826000Y-42164000D02*
X138938000Y-35052000D01*
X138938000Y-35052000D02*
X138938000Y-32766000D01*
X138938000Y-32766000D02*
X141224000Y-30480000D01*
X146748000Y-32053960D02*
X146748000Y-32655000D01*
X145174040Y-30480000D02*
X146748000Y-32053960D01*
X141224000Y-30480000D02*
X145174040Y-30480000D01*
X132715000Y-41275000D02*
X131826000Y-42164000D01*
X132715000Y-34290000D02*
X132715000Y-41275000D01*
X139025000Y-91295000D02*
X139025000Y-90718000D01*
X139275000Y-90468000D02*
X139275000Y-89595000D01*
X139025000Y-90718000D02*
X139275000Y-90468000D01*
X133549999Y-90986001D02*
X133549999Y-90732001D01*
X133525000Y-91011000D02*
X133549999Y-90986001D01*
X133525000Y-91295000D02*
X133525000Y-91011000D01*
X133775000Y-90507000D02*
X133775000Y-89595000D01*
X133549999Y-90732001D02*
X133775000Y-90507000D01*
X133775000Y-84245000D02*
X132715000Y-83185000D01*
X133775000Y-89595000D02*
X133775000Y-84245000D01*
X133525000Y-91880002D02*
X134100998Y-92456000D01*
X133525000Y-91295000D02*
X133525000Y-91880002D01*
X139025000Y-91880002D02*
X139025000Y-91295000D01*
X138449002Y-92456000D02*
X139025000Y-91880002D01*
X134100998Y-92456000D02*
X138449002Y-92456000D01*
X132715000Y-78105000D02*
X132715000Y-83185000D01*
X152245000Y-85725000D02*
X152245000Y-90579000D01*
X150336000Y-92488000D02*
X150336000Y-93615000D01*
X152245000Y-90579000D02*
X150336000Y-92488000D01*
X136906000Y-73914000D02*
X132715000Y-78105000D01*
X150819050Y-66294000D02*
X151892000Y-66294000D01*
X146578001Y-73914000D02*
X136906000Y-73914000D01*
X152654000Y-67838001D02*
X146578001Y-73914000D01*
X152654000Y-67056000D02*
X152654000Y-67838001D01*
X151892000Y-66294000D02*
X152654000Y-67056000D01*
X150474999Y-64960000D02*
X150474999Y-65949949D01*
X150474999Y-65949949D02*
X150819050Y-66294000D01*
X167640000Y-83185000D02*
X167640000Y-89408000D01*
X169457500Y-91225500D02*
X169457500Y-93345000D01*
X167640000Y-89408000D02*
X169457500Y-91225500D01*
X161605000Y-82550000D02*
X161605000Y-85090000D01*
X167005000Y-82550000D02*
X167640000Y-83185000D01*
X161605000Y-82550000D02*
X167005000Y-82550000D01*
X153825000Y-85725000D02*
X153825000Y-86007000D01*
X153825000Y-86007000D02*
X154432000Y-86614000D01*
X156365000Y-85725000D02*
X156365000Y-85951000D01*
X155702000Y-86614000D02*
X154432000Y-86614000D01*
X156365000Y-85951000D02*
X155702000Y-86614000D01*
X153825000Y-85725000D02*
X152245000Y-85725000D01*
X161605000Y-85090000D02*
X161605000Y-86675000D01*
X161605000Y-86675000D02*
X161605000Y-86675000D01*
X139275000Y-89237000D02*
X140374000Y-88138000D01*
X139275000Y-89595000D02*
X139275000Y-89237000D01*
X140374000Y-88138000D02*
X142748000Y-88138000D01*
X142748000Y-88138000D02*
X146050000Y-91440000D01*
X146050000Y-91440000D02*
X146050000Y-95758000D01*
X146050000Y-95758000D02*
X146812000Y-96520000D01*
X146812000Y-96520000D02*
X151384000Y-96520000D01*
X152245000Y-95659000D02*
X152245000Y-90579000D01*
X151384000Y-96520000D02*
X152245000Y-95659000D01*
%TO.N,1*%
X148474999Y-67500000D02*
X144208000Y-67500000D01*
X144208000Y-67500000D02*
X134112000Y-57404000D01*
X134112000Y-57404000D02*
X134112000Y-43434000D01*
X134112000Y-43434000D02*
X140970000Y-36576000D01*
X142146960Y-32655000D02*
X142748000Y-32655000D01*
X140970000Y-33831960D02*
X142146960Y-32655000D01*
X140970000Y-36576000D02*
X140970000Y-33831960D01*
%TO.N,Net-(D1-Pad2)*%
X142392500Y-85725000D02*
X144600000Y-85725000D01*
%TO.N,Net-(D2-Pad2)*%
X158750000Y-92987500D02*
X158750000Y-94947500D01*
%TO.N,Net-(F1-Pad2)*%
X137775000Y-90445000D02*
X137775000Y-89595000D01*
X137525000Y-90695000D02*
X137775000Y-90445000D01*
X137525000Y-91295000D02*
X137525000Y-90695000D01*
X135275000Y-90459998D02*
X135275000Y-89595000D01*
X135025000Y-90709998D02*
X135275000Y-90459998D01*
X135025000Y-91295000D02*
X135025000Y-90709998D01*
X137775000Y-89595000D02*
X137775000Y-88031000D01*
X140081000Y-85725000D02*
X140817500Y-85725000D01*
X137775000Y-88031000D02*
X140081000Y-85725000D01*
X138545000Y-85725000D02*
X140081000Y-85725000D01*
X135275000Y-88995000D02*
X138545000Y-85725000D01*
X135275000Y-89595000D02*
X135275000Y-88995000D01*
%TD*%
M02*
